<?xml version="1.0" standalone="no"?>
<!DOCTYPE svg PUBLIC "-//W3C//DTD SVG 1.1//EN" "http://www.w3.org/Graphics/SVG/1.1/DTD/svg11.dtd" >
<svg xmlns="http://www.w3.org/2000/svg">
<metadata>
Created by FontPrep 20130207 at Mon Apr  7 13:53:27 2014
 By ZHE-YU ZHENG
URW Software, Copyright 1996 by URW
</metadata>
<defs>
<font id="79a0f9815990e9057e7f6019ffa5946f" horiz-adv-x='1024' >
  <font-face 
    font-family="FuturaTEE-Ligh"
    font-weight="400"
    font-stretch="normal"
    units-per-em="2048"
    panose-1="0 0 0 0 0 0 0 0 0 0"
    ascent="1529"
    descent="-519"
    x-height="836"
    cap-height="1365"
    bbox="-110 -512 1983 1836"
    underline-thickness="85"
    underline-position="-154"
    unicode-range="U+0020-25CA"
  />
<missing-glyph horiz-adv-x="512" vert-adv-y="2458" 
d="M410 51v1263h-308v-1263h308zM51 0v1365h410v-1365h-410z" />
    <glyph glyph-name=".notdef" horiz-adv-x="512" vert-adv-y="2458" 
d="M410 51v1263h-308v-1263h308zM51 0v1365h410v-1365h-410z" />
    <glyph glyph-name="glyph1" horiz-adv-x="0" vert-adv-y="0" 
 />
    <glyph glyph-name="glyph2" horiz-adv-x="512" vert-adv-y="2458" 
 />
    <glyph glyph-name="space" unicode=" " horiz-adv-x="512" vert-adv-y="2458" 
 />
    <glyph glyph-name="exclam" unicode="!" horiz-adv-x="531" vert-adv-y="2458" 
d="M221 244v1121h89v-1121h-89zM265 -14q-31 0 -53 22t-21 52q-1 30 21 53q22 22 54 22t52 -22q22 -23 22 -53t-22 -52t-53 -22z" />
    <glyph glyph-name="quotedbl" unicode="&#x22;" horiz-adv-x="737" vert-adv-y="2458" 
d="M444 898l-16 467h94l-15 -467h-63zM231 898l-15 467h93l-15 -467h-63z" />
    <glyph glyph-name="numbersign" unicode="#" horiz-adv-x="1229" vert-adv-y="2458" 
d="M802 860h-329l-40 -327h329zM1136 942v-82h-243l-40 -327h233v-82h-244l-57 -456l-87 12l55 444h-331l-57 -456l-87 12l55 444h-241v82h252l40 327h-241v82h251l53 429l87 -13l-51 -416h329l53 429l88 -13l-52 -416h235z" />
    <glyph glyph-name="dollar" unicode="$" horiz-adv-x="1120" vert-adv-y="2458" 
d="M318 1039q0 -115 108 -184q41 -27 121 -67v506q-134 -9 -198 -132q-31 -59 -31 -123zM880 379q0 129 -133 211q-48 29 -121 64v-579q127 30 202 139q52 75 52 165zM970 380.5q0 -156.5 -105 -260.5t-239 -129v-209h-79v202q-155 5 -262 91q-88 74 -136 200l75 35
q102 -243 323 -244v626q-17 10 -79 40q-165 81 -215 182q-25 53 -25 129q0 197 170 291q64 36 149 43v190h79v-193q86 -14 160 -62t117 -127l-66 -54q-86 141 -211 160v-541q160 -78 215 -118q129 -95 129 -251.5z" />
    <glyph glyph-name="percent" unicode="%" horiz-adv-x="1238" vert-adv-y="2458" 
d="M894 449q-80 0 -136 -57q-56 -56 -57 -136q1 -80 57 -137t136 -57t138 56q56 56 56 138q0 81 -58 137q-56 56 -136 56zM620 264q0 102 78 180q78 80 205 80q128 0 207 -99q60 -75 60 -177t-78 -182q-78 -78 -206 -78t-207 99q-59 75 -59 177zM992 1395l60 -31l-811 -1394
l-57 32zM342 1303q-80 0 -136 -57q-56 -56 -56 -136t56 -137t136 -57t138 56q56 56 56 138q0 81 -57 137t-137 56zM68 1117q0 102 77 181t205 79t209 -99q59 -76 59 -178t-78 -180t-206 -79q-128 0 -207 99q-59 75 -59 177z" />
    <glyph glyph-name="ampersand" unicode="&#x26;" horiz-adv-x="1288" vert-adv-y="2458" 
d="M826 1141q0 73 -52 119t-121 45q-70 -1 -117 -59t-47 -126t50 -142t72 -110q145 107 180 153q35 47 35 120zM220 334q0 -132 85 -206t182 -74q173 0 441 233l-342 467q-25 -18 -135 -88q-231 -147 -231 -332zM485 -28q-73 0 -144.5 32.5t-122.5 88.5q-88 96 -88 237
q0 142 97 254t310 238q-89 132 -113 190t-24 112q0 114 80 190t192 76t178 -80t65 -174q0 -128 -122 -238q-38 -34 -131 -100l334 -450q81 79 160 182l80 -36q-106 -137 -189 -218l207 -279h-113l-162 217q-82 -68 -135 -105q-198 -137 -359 -137z" />
    <glyph glyph-name="quotesingle" unicode="'" horiz-adv-x="503" vert-adv-y="2458" 
d="M214 898l-15 467h93l-15 -467h-63z" />
    <glyph glyph-name="parenleft" unicode="(" horiz-adv-x="552" vert-adv-y="2458" 
d="M263 583q0 -451 126 -892l-67 -47q-39 95 -71 248q-73 344 -73 706t83 723q27 117 61 201l67 -48q-126 -440 -126 -891z" />
    <glyph glyph-name="parenright" unicode=")" horiz-adv-x="552" vert-adv-y="2458" 
d="M290 583q0 449 -126 891l67 48q39 -97 71 -248q73 -344 73 -706t-83 -723q-27 -116 -61 -201l-67 47q126 443 126 892z" />
    <glyph glyph-name="asterisk" unicode="*" horiz-adv-x="1120" vert-adv-y="2458" 
d="M523 1221l-7 273h89l-7 -273l257 91l28 -84l-262 -78l166 -217l-71 -52l-156 225l-155 -225l-71 52l166 217l-262 78l27 84z" />
    <glyph glyph-name="plus" unicode="+" horiz-adv-x="1120" vert-adv-y="2458" 
d="M64 655v82h455v448h82v-448h454v-82h-454v-447h-82v447h-455z" />
    <glyph glyph-name="comma" unicode="," horiz-adv-x="415" vert-adv-y="2458" 
d="M200 134l83 -25l-152 -410l-54 20z" />
    <glyph glyph-name="glyph16" unicode="-" horiz-adv-x="344" vert-adv-y="2458" 
d="M0 464h344v-82h-344v82z" />
    <glyph glyph-name="period" unicode="." horiz-adv-x="416" vert-adv-y="2458" 
d="M208 136q31 0 53 -22t22 -53t-22 -53t-53 -22t-53 22t-22 53t22 53t53 22z" />
    <glyph glyph-name="slash" unicode="/" horiz-adv-x="1113" vert-adv-y="2458" 
d="M1052 1522l64 -33l-1036 -1845l-66 33z" />
    <glyph glyph-name="zero" unicode="0" horiz-adv-x="1120" vert-adv-y="2458" 
d="M544 1298q-98 0 -193 -88t-146 -230q-51 -143 -51 -309q0 -243 112 -421q56 -89 133.5 -137.5t163.5 -48.5q163 0 283 182t120 428q0 247 -105 424q-121 200 -317 200zM569 1381q138 0 259 -110t174 -268t53 -315q0 -293 -146 -502q-67 -98 -163 -152t-187 -53
q-146 0 -265 111q-118 112 -174 268t-56 316q0 289 146 498q69 100 162 153.5t197 53.5z" />
    <glyph glyph-name="one" unicode="1" horiz-adv-x="1120" vert-adv-y="2458" 
d="M556 1283h-214l41 82h262v-1365h-89v1283z" />
    <glyph glyph-name="two" unicode="2" horiz-adv-x="1120" vert-adv-y="2458" 
d="M965 82v-82h-840l523 577q101 111 150 184q84 126 84 232q0 139 -100 222t-220 83t-206 -68t-105 -179q-4 -25 -6 -72h-92q7 145 59 223t150 128t203 51q175 -1 291 -117t116 -276q0 -116 -62 -218t-235 -289l-358 -399h648z" />
    <glyph glyph-name="three" unicode="3" horiz-adv-x="1120" vert-adv-y="2458" 
d="M825 1020q0 138 -97 221q-67 57 -153 57q-166 0 -237 -107q-34 -51 -46 -151h-85q13 113 53 186t121 114q80 41 174 41q162 0 261 -107t99 -247q0 -212 -205 -314q76 -31 124 -81q100 -103 100 -270t-124 -274t-270 -107t-262 88t-123 267h86q11 -94 47 -149t108 -89
t137 -34q127 0 219 92t92 214t-75 206t-232 92v81q103 8 168 51q120 82 120 220z" />
    <glyph glyph-name="four" unicode="4" horiz-adv-x="1120" vert-adv-y="2458" 
d="M757 341v803l-572 -803h572zM844 341h192v-82h-192v-259h-87v259h-734l821 1152v-1070z" />
    <glyph glyph-name="five" unicode="5" horiz-adv-x="1120" vert-adv-y="2458" 
d="M960 1283h-456l-114 -368q53 14 101 14q198 -1 332 -135t134 -348t-170 -354q-135 -111 -309 -111q-273 0 -417 226l79 32q42 -59 94 -97q107 -78 235 -78q179 0 289 120t109 287q0 168 -133 280q-111 95 -265 95q-99 0 -206 -60l178 579h519v-82z" />
    <glyph glyph-name="six" unicode="6" horiz-adv-x="1120" vert-adv-y="2458" 
d="M558 855q-162 0 -278 -116q-116 -115 -116 -279t116 -280t279 -116q164 0 279 116t115 281q-1 164 -117 279t-278 115zM566 938q200 0 338 -142t138 -336q0 -97 -42 -191.5t-116 -163.5q-134 -124 -339 -124t-338 147q-133 146 -133 318t87 296l453 640l70 -52l-301 -429
q98 37 183 37z" />
    <glyph glyph-name="seven" unicode="7" horiz-adv-x="1120" vert-adv-y="2458" 
d="M126 1283v82h990l-977 -1380l-67 52l883 1246h-829z" />
    <glyph glyph-name="eight" unicode="8" horiz-adv-x="1120" vert-adv-y="2458" 
d="M865 368q-1 126 -91 214t-216 87q-126 0 -215 -89t-89 -213q0 -123 89 -213t217 -90t216.5 89t88.5 215zM288 1023q0 -113 80 -195t196 -81q114 0 194 81t81 196q1 114 -81 194t-196 80t-194 -81t-80 -194zM165 362q0 235 222 347q-189 109 -189 314q0 154 106 256
t266 102q160 1 260 -107t100 -238t-83 -232q-47 -58 -116 -95q225 -106 225 -340q0 -185 -138 -296q-114 -92 -259 -92q-89 0 -171.5 38t-139.5 105q-83 97 -83 238z" />
    <glyph glyph-name="nine" unicode="9" horiz-adv-x="1120" vert-adv-y="2458" 
d="M167 905q0 -161 115 -277q116 -116 280 -116t280 116t115 278q0 164 -117 278t-280 114t-278 -116t-115 -277zM555 430q-199 0 -338 142t-139 333q0 97 42 190.5t116 162.5q134 123 339 123t338 -146q133 -147 133 -317t-87 -293l-453 -642l-70 53l301 429
q-99 -35 -182 -35z" />
    <glyph glyph-name="colon" unicode=":" horiz-adv-x="416" vert-adv-y="2458" 
d="M208 855q31 0 53 -22t22 -53t-22 -53t-53 -22t-53 22t-22 53t22 53t53 22zM208 136q31 0 53 -22t22 -53t-22 -53t-53 -22t-53 22t-22 53t22 53t53 22z" />
    <glyph glyph-name="glyph30" unicode=";" horiz-adv-x="415" vert-adv-y="2458" 
d="M214.5 705q-30.5 0 -52.5 22t-22 53q0 30 22 52t52 22t52.5 -22t22.5 -52t-22 -52.5t-52.5 -22.5zM200 134l83 -25l-152 -410l-54 20z" />
    <glyph glyph-name="less" unicode="&#x3c;" vert-adv-y="2458" 
d="M955 1123v-90l-790 -347l790 -348v-89l-887 396v81z" />
    <glyph glyph-name="equal" unicode="=" horiz-adv-x="1120" vert-adv-y="2458" 
d="M64 546v82h991v-82h-991zM64 765v82h991v-82h-991z" />
    <glyph glyph-name="greater" unicode="&#x3e;" vert-adv-y="2458" 
d="M69 248v90l790 348l-790 347v90l887 -397v-81z" />
    <glyph glyph-name="question" unicode="?" horiz-adv-x="952" vert-adv-y="2458" 
d="M472 136q31 0 53 -22t22 -53t-22 -53t-53 -22t-53 22t-22 53t22 53t53 22zM475 227q-134 0 -209 86t-75 206t100 197q53 41 161 70t136 41q126 58 126 215q0 106 -68 180t-176 73t-172 -73t-63 -164q0 -40 12 -97h-84q-13 70 -13 112q0 140 98 222t228 82q165 0 257 -119
q68 -89 68 -212t-71 -214q-53 -67 -161 -101q-12 -3 -124 -33q-167 -44 -167 -194q0 -90 60 -144t128 -54q66 0 114 29.5t68 73.5t25 117h83q2 -194 -142 -267q-63 -32 -139 -32z" />
    <glyph glyph-name="at" unicode="@" horiz-adv-x="1573" vert-adv-y="2458" 
d="M1039 714q-1 122 -73 190q-72 69 -184 69t-197 -87q-84 -87 -84 -212q0 -124 69 -200q68 -76 182 -76t201 97q86 97 86 219zM1161 398q73 0 137 78q44 53 69.5 134t25.5 166q0 240 -169 389q-77 69 -184.5 107.5t-222.5 38.5q-269 -1 -451 -183t-183 -438
q0 -256 162 -436q181 -201 497 -201q203 0 379 77q25 11 74 35l29 -69q-231 -115 -470 -115q-238 0 -398 92t-255 252q-95 159 -95 335q0 336 227 543q204 181 486 181q147 0 276.5 -54t220.5 -154q151 -164 151 -391q0 -225 -144 -383q-71 -78 -180 -77q-60 0 -98 38
q-37 38 -37 84v17q-61 -70 -119 -106t-149 -37q-141 1 -232 95t-91 257q1 163 109 270t238 107t208 -62q37 -28 85 -98l17 143h82l-55 -458l-16 -106q0 -35 23 -53t53 -18z" />
    <glyph glyph-name="A" unicode="A" horiz-adv-x="1197" vert-adv-y="2458" 
d="M856 531l-256 646l-259 -646h515zM889 449h-582l-181 -449h-99l574 1406l568 -1406h-99z" />
    <glyph glyph-name="B" unicode="B" horiz-adv-x="1091" vert-adv-y="2458" 
d="M273 82h229q153 0 216 29q96 43 143 134q31 61 31 134q0 114 -68 187t-194 91q-58 8 -144 8h-213v-583zM273 747h173q120 0 168 20q152 65 152 242q0 146 -91 217q-49 37 -105 47t-124 10h-173v-536zM698 725q284 -77 284 -350q0 -174 -138 -285q-111 -90 -287 -90h-373
v1365h296q189 1 283 -101t94 -242t-65 -219q-31 -38 -94 -78z" />
    <glyph glyph-name="C" unicode="C" horiz-adv-x="1386" vert-adv-y="2458" 
d="M809 1384q261 0 467 -177v-122q-79 89 -159 133q-148 83 -289 83t-264 -58t-211 -161q-153 -177 -153 -408q0 -276 214 -457q185 -157 402 -157q174 0 342 104q53 33 118 103v-120q-217 -170 -454 -170q-145 0 -284 61.5t-242 170.5q-187 200 -187 470q0 147 61 282.5
t172 236.5q206 186 467 186z" />
    <glyph glyph-name="D" unicode="D" horiz-adv-x="1264" vert-adv-y="2458" 
d="M273 82h180q259 0 435 166t176 434q0 270 -176 436t-435 165h-180v-1201zM184 0v1365h270q309 0 505 -194t196 -488.5t-196 -488.5t-505 -194h-270z" />
    <glyph glyph-name="E" unicode="E" horiz-adv-x="948" vert-adv-y="2458" 
d="M838 1283h-565v-494h551v-82h-551v-625h565v-82h-654v1365h654v-82z" />
    <glyph glyph-name="F" unicode="F" horiz-adv-x="831" vert-adv-y="2458" 
d="M736 1283h-463v-494h449v-82h-449v-707h-89v1365h552v-82z" />
    <glyph glyph-name="G" unicode="G" horiz-adv-x="1580" vert-adv-y="2458" 
d="M895 655h575q0 -133 -32.5 -291t-280.5 -298q-159 -90 -325 -89q-166 0 -306.5 63.5t-241.5 177.5q-175 196 -175 459q0 152 64.5 292.5t181.5 241.5q199 173 453 173t440 -147q74 -59 164 -173l-70 -56q-75 100 -143 158t-171 96.5t-221 38.5t-237 -54t-207 -152
q-164 -182 -164 -431q-1 -248 185 -426t429 -178q203 0 365 121t189 302q5 33 8 90h-480v82z" />
    <glyph glyph-name="H" unicode="H" horiz-adv-x="1374" vert-adv-y="2458" 
d="M273 786h827v579h89v-1365h-89v704h-827v-704h-89v1365h89v-579z" />
    <glyph glyph-name="I" unicode="I" horiz-adv-x="457" vert-adv-y="2458" 
d="M273 1365v-1365h-89v1365h89z" />
    <glyph glyph-name="J" unicode="J" horiz-adv-x="543" vert-adv-y="2458" 
d="M358 1365v-1362q0 -132 -46 -197q-63 -92 -191 -92q-156 0 -231 148l64 49q61 -114 171 -114q144 0 144 206v1362h89z" />
    <glyph glyph-name="K" unicode="K" horiz-adv-x="1104" vert-adv-y="2458" 
d="M273 0h-89v1365h89v-635l641 635h122l-669 -658l710 -707h-131l-639 649l-34 -33v-616z" />
    <glyph glyph-name="L" unicode="L" horiz-adv-x="646" vert-adv-y="2458" 
d="M273 1365v-1283h345v-82h-434v1365h89z" />
    <glyph glyph-name="M" unicode="M" horiz-adv-x="1837" vert-adv-y="2458" 
d="M171 0l154 1413l590 -1264l595 1264l157 -1413h-91l-123 1098l-538 -1147l-536 1147l-119 -1098h-89z" />
    <glyph glyph-name="N" unicode="N" horiz-adv-x="1603" vert-adv-y="2458" 
d="M184 0v1380l1145 -1200v1185h89v-1400l-1145 1200v-1165h-89z" />
    <glyph glyph-name="O" unicode="O" horiz-adv-x="1634" vert-adv-y="2458" 
d="M807 1301q-123 0 -243 -56t-209 -156q-155 -173 -155 -408q0 -131 52 -249t147 -206q182 -166 418 -166q129 0 251.5 56t210.5 156q155 173 155 425t-200 437q-179 167 -427 167zM828 1384q141 0 276.5 -62t237.5 -174q183 -199 183 -467q0 -148 -60.5 -283t-171.5 -235
q-207 -186 -476 -186q-147 0 -285.5 62t-240.5 174q-182 199 -182 486t233 499q204 186 486 186z" />
    <glyph glyph-name="P" unicode="P" horiz-adv-x="912" vert-adv-y="2458" 
d="M273 730h179q141 0 221 78t80 202q1 124 -75 198q-76 75 -240 75h-165v-553zM273 648v-648h-89v1365h263q198 1 297 -103q100 -104 100 -262t-103 -256q-103 -96 -292 -96h-176z" />
    <glyph glyph-name="Q" unicode="Q" horiz-adv-x="1634" vert-adv-y="2458" 
d="M1434 673q0 262 -181 445t-433 183q-137 0 -262.5 -59.5t-214.5 -166.5q-143 -173 -143 -398q0 -271 198 -450q88 -80 197.5 -123.5t220.5 -43.5q199 0 387 142l-340 356h122l277 -303q88 104 130 199t42 219zM812 -23q-148 0 -285.5 61.5t-237.5 172.5
q-180 200 -180 467q0 143 58 276.5t163 234.5q205 195 488 195q156 0 299.5 -67.5t245.5 -188.5q162 -194 162 -446q0 -190 -100 -356q-33 -56 -100 -135l180 -191h-118l-123 138q-213 -161 -452 -161z" />
    <glyph glyph-name="R" unicode="R" horiz-adv-x="956" vert-adv-y="2458" 
d="M273 726h131q140 0 225 70t85 209q0 173 -130 243q-66 36 -199 35h-112v-557zM273 645v-645h-89v1365h194q136 0 210 -27q112 -42 164 -132t52 -203q0 -223 -173 -314q-70 -37 -217 -44l447 -645h-108l-440 645h-40z" />
    <glyph glyph-name="S" unicode="S" horiz-adv-x="1049" vert-adv-y="2458" 
d="M531 1301q-118 0 -185 -82t-67 -176t72 -159q45 -40 209 -118t234 -125q145 -95 145 -270t-147 -295q-121 -99 -271 -99q-293 0 -412 294l76 36q41 -89 80 -137t106.5 -79t141.5 -31q137 0 236 94t99 226t-134 209q-46 27 -230 117t-240 160t-56 177q0 161 105 251
t243 90t243 -85q54 -43 92 -109l-66 -55q-41 63 -76 95q-80 71 -198 71z" />
    <glyph glyph-name="T" unicode="T" horiz-adv-x="849" vert-adv-y="2458" 
d="M467 1283v-1283h-89v1283h-351v82h795v-82h-355z" />
    <glyph glyph-name="U" unicode="U" horiz-adv-x="1297" vert-adv-y="2458" 
d="M273 1365v-854q0 -149 15 -209q28 -116 136 -179t234 -63q124 0 230 74t126 197q9 54 9 180v854h89v-878q0 -161 -22 -227q-46 -140 -190 -219q-116 -64 -266 -64q-150 1 -278 89t-160 229q-12 57 -12 192v878h89z" />
    <glyph glyph-name="V" unicode="V" horiz-adv-x="1041" vert-adv-y="2458" 
d="M126 1365l399 -1152l393 1152h95l-488 -1421l-498 1421h99z" />
    <glyph glyph-name="W" unicode="W" horiz-adv-x="2011" vert-adv-y="2458" 
d="M127 1365l372 -1155l495 1229l462 -1229l426 1155h101l-527 -1417l-463 1239l-507 -1239l-459 1417h100z" />
    <glyph glyph-name="X" unicode="X" horiz-adv-x="947" vert-adv-y="2458" 
d="M422 697l-359 668h100l309 -574l307 574h102l-357 -668l376 -697h-101l-327 605l-324 -605h-100z" />
    <glyph glyph-name="Y" unicode="Y" horiz-adv-x="1052" vert-adv-y="2458" 
d="M563 0h-89v583l-447 782h104l389 -685l400 685h105l-462 -782v-583z" />
    <glyph glyph-name="Z" unicode="Z" horiz-adv-x="1137" vert-adv-y="2458" 
d="M1037 82v-82h-962l833 1283h-753v82h906l-834 -1283h810z" />
    <glyph glyph-name="bracketleft" unicode="[" horiz-adv-x="567" vert-adv-y="2458" 
d="M266 1412v-1659h218v-81h-307v1822h307v-82h-218z" />
    <glyph glyph-name="backslash" unicode="\" horiz-adv-x="1113" vert-adv-y="2458" 
d="M61 1522l1038 -1845l-65 -33l-1037 1845z" />
    <glyph glyph-name="bracketright" unicode="]" horiz-adv-x="567" vert-adv-y="2458" 
d="M300 -246v1659h-218v81h307v-1822h-307v82h218z" />
    <glyph glyph-name="asciicircum" unicode="^" vert-adv-y="2458" 
d="M174 780h-101l380 587h117l380 -587h-103l-338 517z" />
    <glyph glyph-name="underscore" unicode="_" vert-adv-y="2458" 
d="M0 -154h1024v-85h-1024v85z" />
    <glyph glyph-name="grave" unicode="`" vert-adv-y="2458" 
d="M295 1191l86 54l187 -255l-60 -34z" />
    <glyph glyph-name="a" unicode="a" horiz-adv-x="1054" vert-adv-y="2458" 
d="M831 437q-1 161 -103 251t-234 90t-225 -102t-93 -260q0 -160 97 -261t243 -101t241 125q74 96 74 258zM91 422q0 221 142 339q111 93 265 93q203 0 328 -163v145h82v-836h-82v150q-115 -172 -316 -172t-321 145q-98 119 -98 299z" />
    <glyph glyph-name="b" unicode="b" horiz-adv-x="1054" vert-adv-y="2458" 
d="M877 438q1 160 -103 250t-236 90t-239 -115q-77 -83 -77 -249t98 -263t228 -97q159 0 256 128q73 97 73 256zM554 -22q-211 0 -326 172v-150h-82v1494h82v-803q124 163 316 163t305 -120t113 -320t-122 -318t-286 -118z" />
    <glyph glyph-name="c" unicode="c" horiz-adv-x="902" vert-adv-y="2458" 
d="M522 778q-156 0 -251 -111t-95 -257t100 -251t256 -105q157 0 292 151v-110q-142 -117 -304 -117q-105 0 -196 45.5t-151 127.5q-82 114 -82 260q1 189 123 316t292 127t307 -107v-107q-68 68 -136 103t-155 35z" />
    <glyph glyph-name="d" unicode="d" horiz-adv-x="1054" vert-adv-y="2458" 
d="M831 437q-1 161 -103 251t-234 90t-225 -102t-93 -260q0 -160 97 -261t243 -101t241 125q74 96 74 258zM91 422q0 221 142 339q111 93 265 93q203 0 328 -163v803h82v-1494h-82v150q-115 -172 -316 -172t-321 145q-98 119 -98 299z" />
    <glyph glyph-name="e" unicode="e" horiz-adv-x="990" vert-adv-y="2458" 
d="M497 778q-107 0 -199 -79t-112 -214h619q-35 181 -136 237t-172 56zM506 54q123 0 211 80q39 35 85 112l70 -41q-128 -227 -371 -227q-197 0 -313 146q-97 120 -97 298q1 178 115 306q114 126 276 126t268 -90q144 -123 148 -357h-718q9 -219 164 -308q77 -45 162 -45z
" />
    <glyph glyph-name="f" unicode="f" horiz-adv-x="436" vert-adv-y="2458" 
d="M229 761v-761h-82v761h-93v75h93v397q0 138 42 197q62 87 177 87q34 0 73 -12v-75q-51 7 -74 7q-73 -1 -105 -55t-31 -166v-380h210v-75h-210z" />
    <glyph glyph-name="g" unicode="g" horiz-adv-x="1067" vert-adv-y="2458" 
d="M506 778q-71 0 -137.5 -35.5t-112.5 -97.5q-71 -95 -71 -237q1 -142 89 -247t238 -105t254 121q78 91 78 251t-102 255t-236 95zM921 836v-819q0 -158 -32 -240q-54 -138 -183 -207q-91 -48 -206 -48q-170 0 -281 94t-128 264h85q19 -176 128 -228.5t198 -52.5
q175 0 263 125q74 106 74 293v126q-139 -163 -326 -163t-300 132t-113 314q0 180 122 304t298 124q137 0 238 -81q34 -27 81 -83v146h82z" />
    <glyph glyph-name="h" unicode="h" horiz-adv-x="902" vert-adv-y="2458" 
d="M228 706q96 148 240 148q175 0 247 -116q41 -69 41 -212v-526h-82v526q0 120 -30 171q-48 81 -178 81t-194 -114q-44 -79 -44 -229v-435h-82v1494h82v-788z" />
    <glyph glyph-name="i" unicode="i" horiz-adv-x="374" vert-adv-y="2458" 
d="M113 1113.5q0 30.5 22 52.5q23 22 53 22t52 -22t22 -52q0 -32 -22 -54t-52 -21q-30 0 -52.5 22t-22.5 52.5zM228 836v-836h-82v836h82z" />
    <glyph glyph-name="j" unicode="j" horiz-adv-x="374" vert-adv-y="2458" 
d="M114 1113.5q0 30.5 22 52.5t52 22t53 -22q22 -22 22 -52q0 -32 -22 -54q-23 -22 -53 -21q-30 0 -52 22t-22 52.5zM229 836v-1325h-82v1325h82z" />
    <glyph glyph-name="k" unicode="k" horiz-adv-x="812" vert-adv-y="2458" 
d="M228 1494v-1012l341 354h109l-352 -362l469 -474h-113l-411 414l-43 -43v-371h-82v1494h82z" />
    <glyph glyph-name="l" unicode="l" horiz-adv-x="374" vert-adv-y="2458" 
d="M228 1494v-1494h-82v1494h82z" />
    <glyph glyph-name="m" unicode="m" horiz-adv-x="1327" vert-adv-y="2458" 
d="M1181 547v-547h-82v558q0 78 -16 124q-17 46 -65 72q-48 24 -99 24q-108 0 -160 -74t-52 -200v-504h-82v538q0 97 -30 151q-49 89 -155 89q-55 0 -103.5 -30t-78.5 -89t-30 -176v-483h-82v836h82v-105q74 123 224 123t225 -152q79 152 245 152q136 0 207 -91
q39 -50 45 -104t7 -112z" />
    <glyph glyph-name="n" unicode="n" horiz-adv-x="901" vert-adv-y="2458" 
d="M228 706q96 148 239 148q177 0 247 -116q41 -69 41 -211v-527h-82v527q0 119 -30 170q-48 81 -177 81t-194 -114q-30 -52 -37 -106t-7 -123v-435h-82v836h82v-130z" />
    <glyph glyph-name="o" unicode="o" horiz-adv-x="1058" vert-adv-y="2458" 
d="M881 428q-1 148 -107 248q-106 102 -259 102t-257 -127q-82 -101 -82 -245t103 -248t247 -104q79 0 152 34.5t124 95.5q79 96 79 244zM91 428q0 176 131 301q130 125 312 125t307 -128t125 -324q0 -194 -153 -321q-124 -103 -283 -103q-97 0 -186 41.5t-152 114.5
q-101 118 -101 294z" />
    <glyph glyph-name="p" unicode="p" horiz-adv-x="1054" vert-adv-y="2458" 
d="M223 396q1 -162 103 -252t234 -90t226 102q92 102 92 261q0 161 -96 261t-242 100q-145 0 -242 -124q-75 -96 -75 -258zM543 854q202 0 322 -144q98 -118 98 -299q0 -220 -142 -339q-112 -94 -264 -94q-204 0 -329 167v-634h-82v1325h82v-150q113 168 315 168z" />
    <glyph glyph-name="q" unicode="q" horiz-adv-x="1054" vert-adv-y="2458" 
d="M831 418q0 164 -98 262q-97 98 -241 98t-242 -128q-74 -96 -74 -255t104 -250t236 -91t238 115q77 84 77 249zM500 854q212 0 326 -168v150h82v-1325h-82v634q-124 -167 -316 -167t-306 120t-113 322q1 200 123 317t286 117z" />
    <glyph glyph-name="r" unicode="r" horiz-adv-x="532" vert-adv-y="2458" 
d="M146 836h82v-109q65 127 185 127q40 0 89 -20l-44 -72q-28 16 -66 16t-79.5 -29t-60.5 -75q-20 -46 -22 -99t-2 -126v-449h-82v836z" />
    <glyph glyph-name="s" unicode="s" horiz-adv-x="700" vert-adv-y="2458" 
d="M375 778q-68 0 -106 -44t-38 -94q1 -51 41 -82t140 -69t142 -69q82 -62 82 -184t-83 -190t-188 -68q-143 0 -229 105q-37 44 -58 116l79 25q60 -170 206 -170q92 0 140 60t48 125t-35 101q-36 36 -140 74t-167 86t-63 144t72 154q72 56 147 56q150 0 223 -136l-70 -35
q-51 95 -143 95z" />
    <glyph glyph-name="t" unicode="t" horiz-adv-x="398" vert-adv-y="2458" 
d="M236 761v-761h-82v761h-93v75h93v299h82v-299h146v-75h-146z" />
    <glyph glyph-name="u" unicode="u" horiz-adv-x="893" vert-adv-y="2458" 
d="M228 836v-498q0 -132 26 -182t80 -76t114 -26t113 27.5t79 76.5t25 180v498h82v-527q0 -108 -20 -160q-35 -87 -115 -129t-165 -42q-154 0 -241 103q-44 53 -52 109t-8 119v527h82z" />
    <glyph glyph-name="v" unicode="v" horiz-adv-x="800" vert-adv-y="2458" 
d="M112 836l289 -675l289 675h93l-382 -886l-385 886h96z" />
    <glyph glyph-name="w" unicode="w" horiz-adv-x="1376" vert-adv-y="2458" 
d="M111 836l283 -672l290 723l288 -723l292 672h95l-387 -888l-288 726l-290 -726l-378 888h95z" />
    <glyph glyph-name="x" unicode="x" horiz-adv-x="820" vert-adv-y="2458" 
d="M357 438l-311 398h108l257 -334l253 334h108l-304 -398l336 -438h-106l-287 375l-286 -375h-109z" />
    <glyph glyph-name="y" unicode="y" horiz-adv-x="877" vert-adv-y="2458" 
d="M411 -14l-395 850h96l342 -742l311 742h95l-560 -1325h-93z" />
    <glyph glyph-name="z" unicode="z" horiz-adv-x="927" vert-adv-y="2458" 
d="M886 75v-75h-849l682 761h-573v75h744l-676 -761h672z" />
    <glyph glyph-name="braceleft" unicode="{" horiz-adv-x="492" vert-adv-y="2458" 
d="M433 -261v-74q-14 0 -47 -1q-80 -2 -126 42t-56 96t-11 116v455q-1 102 -37 134t-82 45v62q87 24 109 95q10 32 10 184v355q0 110 25 158q50 96 168 96h17q17 -1 30 -1v-74h-32q-48 0 -68 -12q-51 -31 -51 -163v-362q-2 -210 -37 -254q-18 -25 -54 -53q36 -28 54 -53
q36 -50 37 -155v-461q0 -132 51 -163q19 -12 49 -12h51z" />
    <glyph glyph-name="bar" unicode="|" vert-adv-y="2458" 
d="M468 1365h89v-1706h-89v1706z" />
    <glyph glyph-name="braceright" unicode="}" horiz-adv-x="492" vert-adv-y="2458" 
d="M59 1427v74q14 0 48 1q79 3 134 -51q37 -35 47 -87t11 -116v-455q1 -102 37 -134t82 -45v-62q-48 -13 -74 -38t-29 -40q-16 -48 -16 -201v-355q0 -110 -28 -163q-47 -91 -165 -91l-28 1h-19v74h32q48 0 68 12q51 31 51 163v362q2 210 37 254q18 25 54 53q-36 27 -54 53
q-37 51 -37 155v461q0 132 -51 163q-19 12 -49 12h-51z" />
    <glyph glyph-name="asciitilde" unicode="~" horiz-adv-x="1365" vert-adv-y="2458" 
d="M454 1463q88 0 242 -79q61 -30 111 -51t106 -21q101 0 171 111q28 44 44 44t43 -35q-55 -100 -97 -137q-81 -71 -158 -71t-141 28q-63 28 -157 76q-94 47 -154 47q-117 0 -188 -119q-24 -40 -40 -40t-43 37q55 103 115 157q58 54 146 53z" />
    <glyph glyph-name="Tcaron" horiz-adv-x="849" vert-adv-y="2458" 
d="M467 1283v-1283h-89v1283h-351v82h795v-82h-355zM679 1678l-255 -215l-255 215l74 57l181 -153l182 153z" />
    <glyph glyph-name="uni008E" horiz-adv-x="1137" vert-adv-y="2458" 
d="M1037 82v-82h-962l833 1283h-753v82h906l-834 -1283h810zM864 1678l-255 -215l-255 215l74 57l181 -153l182 153z" />
    <glyph glyph-name="Zacute" horiz-adv-x="1137" vert-adv-y="2458" 
d="M1037 82v-82h-962l833 1283h-753v82h906l-834 -1283h810zM844 1671l-271 -210l-72 53l249 222z" />
    <glyph glyph-name="tcaron" horiz-adv-x="523" vert-adv-y="2458" 
d="M236 761v-761h-82v761h-93v75h93v299h82v-299h146v-75h-146zM429 1378l94 -27l-120 -293l-65 21z" />
    <glyph glyph-name="uni009E" horiz-adv-x="927" vert-adv-y="2458" 
d="M886 75v-75h-849l682 761h-573v75h744l-676 -761h672zM269 1189l67 52l182 -179l183 179l66 -52l-249 -233z" />
    <glyph glyph-name="nbspace" unicode="&#xa0;" horiz-adv-x="512" vert-adv-y="2458" 
 />
    <glyph glyph-name="exclamdown" unicode="&#xa1;" vert-adv-y="2458" 
d="M263 1189l67 52l182 -179l183 179l66 -52l-249 -233z" />
    <glyph glyph-name="cent" unicode="&#xa2;" vert-adv-y="2458" 
d="M512 1041q126 0 165 174h78q-10 -88 -50 -147q-73 -106 -193 -106t-192 106q-40 59 -50 147h78q38 -174 164 -174z" />
    <glyph glyph-name="glyph106" unicode="&#xa3;" horiz-adv-x="646" vert-adv-y="2458" 
d="M273 82h345v-82h-434v615l-139 -107v98l139 107v652h89v-608l231 171v-98l-231 -171v-577z" />
    <glyph glyph-name="currency" unicode="&#xa4;" horiz-adv-x="1365" vert-adv-y="2458" 
d="M679 1099q-162 0 -268 -117q-106 -116 -106 -274t117 -264t260.5 -105.5t261.5 104.5t118 283q0 69 -29 138.5t-78 118.5q-114 116 -276 116zM221 714q0 160 108 297l-185 186l53 53l185 -185q141 114 302 114t298 -113l185 184l53 -53l-184 -185q109 -136 109 -294
t-111 -294l188 -187l-53 -53l-187 187q-138 -112 -296 -112t-298 108l-185 -184l-52 54l183 184q-113 133 -113 293z" />
    <glyph glyph-name="Aogonek" unicode="&#xa5;" horiz-adv-x="1197" vert-adv-y="2458" 
d="M856 531l-256 646l-259 -646h515zM1001 -206q0 -104 105 -104q53 0 121 38l-21 -84q-66 -28 -134 -28t-116 43t-49 131q0 88 76 151q29 24 87 59l-181 449h-582l-181 -449h-99l574 1406l568 -1406q-168 -102 -168 -206z" />
    <glyph glyph-name="brokenbar" unicode="&#xa6;" vert-adv-y="2458" 
d="M468 314h89v-655h-89v655zM468 1365h89v-667h-89v667z" />
    <glyph glyph-name="section" unicode="&#xa7;" horiz-adv-x="1120" vert-adv-y="2458" 
d="M560 320.5q110 -0.5 187 77.5t77 188t-78 186t-187 76t-186 -78t-77 -185.5t77 -185.5t187 -78.5zM544 -264q132 0 196 62q62 62 62 165q0 134 -114 198q-49 29 -188 77t-198 106q-97 93 -97 239q0 229 220 331q-70 36 -107 72q-81 79 -81 223q-1 144 97 224t243 80
q210 0 285 -145q31 -61 40 -207h-91q-1 270 -237 270q-110 -1 -178 -63t-68 -172t83 -173q45 -35 86 -49t147 -46t169 -88q102 -91 102 -254q0 -216 -221 -330q74 -32 113 -69q86 -82 86 -228q0 -145 -88 -225t-247 -80q-213 0 -286 136q-31 58 -37 217h92q-1 -129 31 -181
q54 -90 186 -90z" />
    <glyph glyph-name="dieresis" unicode="&#xa8;" vert-adv-y="2458" 
d="M608 1083.5q0 30.5 22 52.5t52 22t52.5 -22t22.5 -52t-22 -52.5t-52.5 -22.5t-52.5 22t-22 52.5zM268 1083.5q0 30.5 22 52.5t53 22t53 -22t21 -52q1 -30 -21 -53q-22 -22 -54 -22t-52 22q-22 22 -22 52.5z" />
    <glyph glyph-name="copyright" unicode="&#xa9;" horiz-adv-x="1516" vert-adv-y="2458" 
d="M748 1287q-123 0 -238 -52.5t-201 -147.5q-156 -172 -156 -404q0 -129 52.5 -246.5t147.5 -203.5q173 -155 405 -155q128 0 246 52.5t204 147.5q155 172 155 421t-201 432q-170 156 -414 156zM769 1385q143 0 277 -61t234 -172q181 -199 181 -469q0 -150 -61 -286.5
t-172 -236.5q-200 -180 -470 -180q-149 0 -286 61t-237 171q-180 201 -180 490t233 502q198 181 481 181zM789 1002q-147 0 -247 -116q-81 -94 -81 -228q-1 -134 105 -222q106 -90 220 -90q147 0 266 136v-107q-127 -101 -264 -101q-174 0 -290 123t-115 288t125 278
t273 113t271 -106v-109q-116 141 -263 141z" />
    <glyph glyph-name="ordfeminine" unicode="&#xaa;" horiz-adv-x="1049" vert-adv-y="2458" 
d="M531 1301q-118 0 -185 -82t-67 -176t72 -159q45 -40 209 -118t234 -125q145 -95 145 -270t-147 -295q-121 -99 -271 -99q-293 0 -412 294l76 36q41 -89 80 -137t107 -79t141 -31q137 0 236 94t99 226t-134 209q-46 27 -230 117t-240 160t-56 177q0 161 105 251t243 90
t243 -85q54 -43 92 -109l-66 -55q-41 63 -76 95q-80 71 -198 71zM597 -147l-210 -259l-73 37l180 273z" />
    <glyph glyph-name="guillemotleft" unicode="&#xab;" horiz-adv-x="711" vert-adv-y="2458" 
d="M166 423l218 -256l-52 -49l-264 305l264 306l52 -49zM383 423l219 -256l-52 -49l-265 305l265 306l52 -49z" />
    <glyph glyph-name="logicalnot" unicode="&#xac;" vert-adv-y="2458" 
d="M866 0v463h-798v83h887v-546h-89z" />
    <glyph glyph-name="sfthyphen" unicode="&#xad;" horiz-adv-x="344" vert-adv-y="2458" 
d="M0 464h344v-82h-344v82z" />
    <glyph glyph-name="registered" unicode="&#xae;" horiz-adv-x="1515" vert-adv-y="2458" 
d="M748 1287q-122 0 -237.5 -52.5t-201.5 -147.5q-156 -172 -156 -404q0 -129 52.5 -246.5t147.5 -203.5q173 -155 405 -155q128 0 246 52.5t204 147.5q155 172 155 421t-201 432q-170 156 -414 156zM769 1385q143 0 277 -61t234 -172q181 -199 181 -469q0 -150 -61 -286.5
t-172 -236.5q-200 -180 -470 -180q-149 0 -286 61t-237 171q-180 200 -180 490t233 502q198 181 481 181zM675 714h59q156 0 156 140t-167 139h-48v-279zM968 852q0 -187 -204 -208l247 -357h-93l-242 355v-355h-77v778h121q109 0 167 -40q81 -57 81 -173z" />
    <glyph glyph-name="Zdotaccent" unicode="&#xaf;" horiz-adv-x="1137" vert-adv-y="2458" 
d="M1037 82v-82h-962l833 1283h-753v82h906l-834 -1283h810zM609 1677q35 0 59 -24t24 -59t-24 -59t-60 -24q-34 1 -58 25t-24 58t24 59q25 24 59 24z" />
    <glyph glyph-name="degree" unicode="&#xb0;" horiz-adv-x="1120" vert-adv-y="2458" 
d="M560 902q79 0 135 56t56 136t-57 134q-56 54 -134 55t-134 -55t-56.5 -135t55.5 -135t135 -56zM560 820q-113 0 -193 80t-80 194q-1 114 81 192t193 79q111 0 191 -79t80.5 -192.5t-79.5 -193.5t-193 -80z" />
    <glyph glyph-name="plusminus" unicode="&#xb1;" horiz-adv-x="1120" vert-adv-y="2458" 
d="M64 0v82h991v-82h-991zM64 655v82h455v448h82v-448h454v-82h-454v-447h-82v447h-455z" />
    <glyph glyph-name="uni00B2" unicode="&#xb2;" vert-adv-y="2458" 
d="M730 -188q0 -50 28 -72t67 -23q40 0 107 36l-19 -82q-51 -27 -117 -27t-112 41t-45 119q0 78 65 137q31 28 91 59h82q-147 -86 -147 -188z" />
    <glyph glyph-name="uni00B3" unicode="&#xb3;" horiz-adv-x="401" vert-adv-y="2458" 
d="M242 0h-82v657l-135 -105v96l135 104v742h82v-700l135 104v-95l-135 -104v-699z" />
    <glyph glyph-name="acute" unicode="&#xb4;" vert-adv-y="2458" 
d="M729 1191l-213 -235l-60 34l187 255z" />
    <glyph glyph-name="mu" unicode="&#xb5;" horiz-adv-x="893" vert-adv-y="2458" 
d="M228 -489h-82v1325h82v-498q0 -132 26 -182t80 -76t114 -26t113 27.5t79 76.5t25 180v498h82v-527q0 -108 -20 -160q-35 -87 -115 -129t-163 -42q-128 0 -221 87v-554z" />
    <glyph glyph-name="paragraph" unicode="&#xb6;" horiz-adv-x="1120" vert-adv-y="2458" 
d="M542 -208h-82v900h-19q-166 0 -253 111q-72 92 -72 233t92 235t280 94h498l-36 -75h-91v-1498h-82v1498h-235v-1498z" />
    <glyph glyph-name="middot" unicode="&#xb7;" horiz-adv-x="422" vert-adv-y="2458" 
d="M212 498q31 0 53 -22t22 -53t-22 -53t-53 -22t-53 22t-22 54q0 30 22 52t53 22z" />
    <glyph glyph-name="cedilla" unicode="&#xb8;" vert-adv-y="2458" 
d="M637 -139l-196 -252l-63 34l168 261z" />
    <glyph glyph-name="aogonek" unicode="&#xb9;" horiz-adv-x="1054" vert-adv-y="2458" 
d="M831 437q-1 161 -103 251t-234 90t-225 -102t-93 -260q0 -160 97 -261t243 -101t241 125q74 96 74 258zM91 422q0 221 142 339q111 93 265 93q203 0 328 -163v145h82v-836q-147 -86 -147 -188q-1 -50 27 -72t68 -23q40 0 108 36l-19 -82q-53 -27 -118 -27t-111 41
t-46 112q0 123 156 203v150q-115 -172 -316 -172t-321 145q-98 119 -98 299z" />
    <glyph glyph-name="ordmasculine" unicode="&#xba;" horiz-adv-x="700" vert-adv-y="2458" 
d="M375 778q-68 0 -106 -44t-38 -94q1 -51 41 -82t140 -69t142 -69q82 -62 82 -184t-83 -190t-188 -68q-143 0 -229 105q-37 44 -58 116l79 25q60 -170 206 -170q92 0 140 60t48 125t-35 101q-36 36 -140 74t-167 86t-63 144t72 154q72 56 147 56q150 0 223 -136l-70 -35
q-51 95 -143 95zM432 -139l-196 -252l-63 34l168 261z" />
    <glyph glyph-name="guillemotright" unicode="&#xbb;" horiz-adv-x="711" vert-adv-y="2458" 
d="M545 423l-219 257l52 49l265 -306l-265 -305l-52 49zM328 423l-219 257l52 49l264 -306l-264 -305l-52 49z" />
    <glyph glyph-name="Lcaron" unicode="&#xbc;" horiz-adv-x="646" vert-adv-y="2458" 
d="M273 1365v-1283h345v-82h-434v1365h89zM472 1379l100 -28l-124 -310l-64 19z" />
    <glyph glyph-name="onehalf" unicode="&#xbd;" vert-adv-y="2458" 
d="M591 1191l-209 -235l-56 34l187 255zM830 1191l-209 -235l-56 34l187 255z" />
    <glyph glyph-name="lcaron" unicode="&#xbe;" horiz-adv-x="515" vert-adv-y="2458" 
d="M228 1494v-1494h-82v1494h82zM421 1501l94 -27l-120 -293l-65 21z" />
    <glyph glyph-name="zdotaccent" unicode="&#xbf;" horiz-adv-x="927" vert-adv-y="2458" 
d="M886 75v-75h-849l682 761h-573v75h744l-676 -761h672zM518 1166q32 0 55 -23t23 -55t-23 -56q-23 -23 -55 -23t-56 23q-23 24 -23 56t23 55q24 23 56 23z" />
    <glyph glyph-name="Racute" unicode="&#xc0;" horiz-adv-x="956" vert-adv-y="2458" 
d="M273 726h131q140 0 225 70t85 209q0 173 -130 243q-66 36 -199 35h-112v-557zM273 645v-645h-89v1365h194q136 0 210 -27q112 -42 164 -132t52 -203q0 -223 -173 -314q-70 -37 -217 -44l447 -645h-108l-440 645h-40zM679 1671l-271 -210l-72 53l249 222z" />
    <glyph glyph-name="Aacute" unicode="&#xc1;" horiz-adv-x="1197" vert-adv-y="2458" 
d="M856 531l-256 646l-259 -646h515zM889 449h-582l-181 -449h-99l574 1406l568 -1406h-99zM861 1671l-271 -210l-72 53l249 222z" />
    <glyph glyph-name="Acircumflex" unicode="&#xc2;" horiz-adv-x="1197" vert-adv-y="2458" 
d="M856 531l-256 646l-259 -646h515zM889 449h-582l-181 -449h-99l574 1406l568 -1406h-99zM343 1520l255 215l255 -215l-73 -57l-182 153l-182 -153z" />
    <glyph glyph-name="Abreve" unicode="&#xc3;" horiz-adv-x="1197" vert-adv-y="2458" 
d="M856 531l-256 646l-259 -646h515zM889 449h-582l-181 -449h-99l574 1406l568 -1406h-99zM598 1559q128 0 168 152h86q-10 -88 -53 -143q-75 -99 -201 -99t-201 99q-43 55 -53 143h86q40 -152 168 -152z" />
    <glyph glyph-name="Adieresis" unicode="&#xc4;" horiz-adv-x="1197" vert-adv-y="2458" 
d="M856 531l-256 646l-259 -646h515zM889 449h-582l-181 -449h-99l574 1406l568 -1406h-99zM788 1668q32 0 56 -23q23 -23 23 -55t-23 -56q-24 -23 -56 -23t-55 23q-23 24 -23 56t23 55t55 23zM329 1590q0 34 23 56q24 22 56 22t55 -23t23 -55t-23 -56q-23 -23 -55 -23
t-56 23q-23 23 -23 56z" />
    <glyph glyph-name="Lacute" unicode="&#xc5;" horiz-adv-x="646" vert-adv-y="2458" 
d="M273 1365v-1283h345v-82h-434v1365h89zM517 1671l-271 -210l-72 53l249 222z" />
    <glyph glyph-name="AE" unicode="&#xc6;" horiz-adv-x="1386" vert-adv-y="2458" 
d="M809 1384q261 0 467 -177v-122q-79 89 -159 133q-148 83 -289 83t-264 -58t-211 -161q-153 -177 -153 -408q0 -276 214 -457q185 -157 402 -157q174 0 342 104q53 33 118 103v-120q-217 -170 -454 -170q-145 -1 -284 61t-242 171q-187 200 -187 470q0 147 61 283t172 236
q206 186 467 186zM1051 1671l-271 -210l-72 53l249 222z" />
    <glyph glyph-name="Ccedilla" unicode="&#xc7;" horiz-adv-x="1386" vert-adv-y="2458" 
d="M809 1384q261 0 467 -177v-122q-79 89 -159 133q-148 83 -289 83t-264 -58t-211 -161q-153 -177 -153 -408q0 -276 214 -457q185 -157 402 -157q174 0 342 104q53 33 118 103v-120q-217 -170 -454 -170q-145 -1 -284 61t-242 171q-187 200 -187 470q0 147 61 283t172 236
q206 186 467 186zM862 -147l-210 -259l-73 37l180 273z" />
    <glyph glyph-name="Egrave" unicode="&#xc8;" horiz-adv-x="1386" vert-adv-y="2458" 
d="M809 1384q261 0 467 -177v-122q-79 89 -159 133q-148 83 -289 83t-264 -58t-211 -161q-153 -177 -153 -408q0 -276 214 -457q185 -157 402 -157q174 0 342 104q53 33 118 103v-120q-217 -170 -454 -170q-145 -1 -284 61t-242 171q-187 200 -187 470q0 147 61 283t172 236
q206 186 467 186zM1070 1678l-255 -215l-255 215l74 57l181 -153l182 153z" />
    <glyph glyph-name="Eacute" unicode="&#xc9;" horiz-adv-x="948" vert-adv-y="2458" 
d="M838 1283h-565v-494h551v-82h-551v-625h565v-82h-654v1365h654v-82zM750 1671l-271 -210l-72 53l249 222z" />
    <glyph glyph-name="Eogonek" unicode="&#xca;" horiz-adv-x="948" vert-adv-y="2458" 
d="M669 -205q0 -105 105 -105q54 0 122 38l-21 -84q-65 -28 -133 -28t-118 43q-48 43 -48 129t76 153q33 28 90 59h-558v1365h654v-82h-565v-494h551v-82h-551v-625h565v-82q-169 -100 -169 -205z" />
    <glyph glyph-name="Edieresis" unicode="&#xcb;" horiz-adv-x="948" vert-adv-y="2458" 
d="M838 1283h-565v-494h551v-82h-551v-625h565v-82h-654v1365h654v-82zM704 1668q32 0 56 -23q23 -23 23 -55t-23 -56q-24 -23 -56 -23t-55 23q-23 24 -23 56t23 55t55 23zM245 1590q0 34 23 56q24 22 56 22t55 -23t23 -55t-23 -56q-23 -23 -55 -23t-56 23q-23 23 -23 56z
" />
    <glyph glyph-name="Ecaron" unicode="&#xcc;" horiz-adv-x="948" vert-adv-y="2458" 
d="M838 1283h-565v-494h551v-82h-551v-625h565v-82h-654v1365h654v-82zM769 1678l-255 -215l-255 215l74 57l181 -153l182 153z" />
    <glyph glyph-name="Iacute" unicode="&#xcd;" horiz-adv-x="457" vert-adv-y="2458" 
d="M464 1671l-244 -210l-72 53l224 222zM273 1365v-1365h-89v1365h89z" />
    <glyph glyph-name="Icircumflex" unicode="&#xce;" horiz-adv-x="457" vert-adv-y="2458" 
d="M-6 1520l235 215l234 -215l-71 -57l-163 153l-165 -153zM273 1365v-1365h-89v1365h89z" />
    <glyph glyph-name="Dcaron" unicode="&#xcf;" horiz-adv-x="1264" vert-adv-y="2458" 
d="M273 82h180q259 0 435 166t176 434q0 270 -176 436t-435 165h-180v-1201zM184 0v1365h270q309 0 505 -194t196 -488q0 -295 -196 -489t-505 -194h-270zM800 1678l-255 -215l-255 215l74 57l181 -153l182 153z" />
    <glyph glyph-name="Eth" unicode="&#xd0;" horiz-adv-x="1264" vert-adv-y="2458" 
d="M274 82h179q261 0 437 166t175.5 435.5t-185.5 442.5q-166 157 -427 157h-179v-498h341v-82h-341v-621zM185 0v703h-137v82h137v580h270q309 1 505 -193t196 -488t-196 -490q-196 -194 -505 -194h-270z" />
    <glyph glyph-name="Nacute" unicode="&#xd1;" horiz-adv-x="1603" vert-adv-y="2458" 
d="M184 0v1380l1145 -1200v1185h89v-1400l-1145 1200v-1165h-89zM1050 1671l-271 -210l-72 53l249 222z" />
    <glyph glyph-name="Ncaron" unicode="&#xd2;" horiz-adv-x="1603" vert-adv-y="2458" 
d="M184 0v1380l1145 -1200v1185h89v-1400l-1145 1200v-1165h-89zM1056 1678l-255 -215l-255 215l74 57l181 -153l182 153z" />
    <glyph glyph-name="Oacute" unicode="&#xd3;" horiz-adv-x="1634" vert-adv-y="2458" 
d="M807 1301q-123 0 -243 -56t-209 -156q-155 -173 -155 -408q0 -131 52 -249t147 -206q182 -166 418 -166q129 0 251 56t211 156q155 173 155 425t-200 437q-179 167 -427 167zM828 1384q140 0 276 -62t238 -174q183 -199 183 -467q-1 -148 -61 -283t-171 -235
q-207 -186 -476 -186q-147 0 -285 62t-241 174q-182 199 -182 486t233 499q204 186 486 186zM1066 1671l-271 -210l-72 53l249 222z" />
    <glyph glyph-name="Ocircumflex" unicode="&#xd4;" horiz-adv-x="1634" vert-adv-y="2458" 
d="M807 1301q-123 0 -243 -56t-209 -156q-155 -173 -155 -408q0 -131 52 -249t147 -206q182 -166 418 -166q129 0 251 56t211 156q155 173 155 425t-200 437q-179 167 -427 167zM828 1384q140 0 276 -62t238 -174q183 -199 183 -467q-1 -148 -61 -283t-171 -235
q-207 -186 -476 -186q-147 0 -285 62t-241 174q-182 199 -182 486t233 499q204 186 486 186zM562 1520l255 215l255 -215l-73 -57l-182 153l-182 -153z" />
    <glyph glyph-name="Ohungarumlaut" unicode="&#xd5;" horiz-adv-x="1634" vert-adv-y="2458" 
d="M807 1301q-123 0 -243 -56t-209 -156q-155 -173 -155 -408q0 -131 52 -249t147 -206q182 -166 418 -166q129 0 251 56t211 156q155 173 155 425t-200 437q-179 167 -427 167zM828 1384q140 0 276 -62t238 -174q183 -199 183 -467q-1 -148 -61 -283t-171 -235
q-207 -186 -476 -186q-147 0 -285 62t-241 174q-182 199 -182 486t233 499q204 186 486 186zM938 1671l-272 -210l-66 53l249 222zM1225 1671l-272 -210l-66 53l249 222z" />
    <glyph glyph-name="Odieresis" unicode="&#xd6;" horiz-adv-x="1634" vert-adv-y="2458" 
d="M929 1590.5q0 33.5 23 55.5q24 22 56 22t55 -23t23 -55t-23 -55.5t-55 -23.5t-55.5 23t-23.5 56.5zM548 1590.5q0 33.5 23 55.5t55 22t55.5 -23t23.5 -55t-23.5 -55.5t-55.5 -23.5t-55 23t-23 56.5zM807 1301q-123 0 -243 -56t-209 -156q-155 -173 -155 -408
q0 -131 52 -249t147 -206q182 -166 418 -166q129 0 251.5 56t210.5 156q155 173 155 425t-200 437q-179 167 -427 167zM828 1384q141 0 276.5 -62t237.5 -174q183 -199 183 -467q0 -148 -60.5 -283t-171.5 -235q-207 -186 -476 -186q-147 0 -285.5 62t-240.5 174
q-182 199 -182 486t233 499q204 186 486 186z" />
    <glyph glyph-name="multiply" unicode="&#xd7;" horiz-adv-x="1120" vert-adv-y="2458" 
d="M158 1043l56 56l346 -347l347 347l56 -56l-347 -347l347 -346l-56 -56l-347 347l-346 -347l-56 56l347 346z" />
    <glyph glyph-name="Rcaron" unicode="&#xd8;" horiz-adv-x="956" vert-adv-y="2458" 
d="M273 726h131q140 0 225 70t85 209q0 173 -130 243q-66 36 -199 35h-112v-557zM273 645v-645h-89v1365h194q136 0 210 -27q112 -42 164 -132t52 -203q0 -223 -173 -314q-70 -37 -217 -44l447 -645h-108l-440 645h-40zM705 1678l-255 -215l-255 215l74 57l181 -153l182 153
z" />
    <glyph glyph-name="Uring" unicode="&#xd9;" horiz-adv-x="1297" vert-adv-y="2458" 
d="M273 1365v-854q0 -149 15 -209q28 -116 136 -179t234 -63q124 0 230 74t126 197q9 54 9 180v854h89v-878q0 -161 -22 -227q-46 -140 -190 -219q-116 -64 -266 -64q-150 1 -278 89t-160 229q-12 57 -12 192v878h89zM648 1694q-36 0 -60 -24t-25 -60q1 -34 25 -59t60 -25
t60 24q25 24 25 60t-25 60q-24 24 -60 24zM648 1775q68 0 116 -48t48 -116t-48 -116t-116 -48q-68 1 -116 49t-48 116t48 115q48 48 116 48z" />
    <glyph glyph-name="Uacute" unicode="&#xda;" horiz-adv-x="1297" vert-adv-y="2458" 
d="M273 1365v-854q0 -149 15 -209q28 -116 136 -179t234 -63q124 0 230 74t126 197q9 54 9 180v854h89v-878q0 -161 -22 -227q-46 -140 -190 -219q-116 -64 -266 -64q-150 1 -278 89t-160 229q-12 57 -12 192v878h89zM890 1671l-271 -210l-72 53l249 222z" />
    <glyph glyph-name="Uhungarumlaut" unicode="&#xdb;" horiz-adv-x="1297" vert-adv-y="2458" 
d="M273 1365v-854q0 -149 15 -209q28 -116 136 -179t234 -63q124 0 230 74t126 197q9 54 9 180v854h89v-878q0 -161 -22 -227q-46 -140 -190 -219q-116 -64 -266 -64q-150 1 -278 89t-160 229q-12 57 -12 192v878h89zM763 1671l-272 -210l-66 53l249 222zM1050 1671
l-272 -210l-66 53l249 222z" />
    <glyph glyph-name="Udieresis" unicode="&#xdc;" horiz-adv-x="1297" vert-adv-y="2458" 
d="M273 1365v-854q0 -149 15 -209q28 -116 136 -179t234 -63q124 0 230 74t126 197q9 54 9 180v854h89v-878q0 -161 -22 -227q-46 -140 -190 -219q-116 -64 -266 -64q-150 1 -278 89t-160 229q-12 57 -12 192v878h89zM838 1668q32 0 56 -23q23 -23 23 -55t-23 -56
q-24 -23 -56 -23t-55 23q-23 24 -23 56t23 55t55 23zM379 1590q0 34 23 56q24 22 56 22t55 -23t23 -55t-23 -56q-23 -23 -55 -23t-56 23q-23 23 -23 56z" />
    <glyph glyph-name="Yacute" unicode="&#xdd;" horiz-adv-x="1052" vert-adv-y="2458" 
d="M563 0h-89v583l-447 782h104l389 -685l400 685h105l-462 -782v-583zM768 1671l-271 -210l-72 53l249 222z" />
    <glyph glyph-name="Tcommaaccent" unicode="&#xde;" horiz-adv-x="849" vert-adv-y="2458" 
d="M467 1283v-1283h-89v1283h-351v82h795v-82h-355zM373 -96l100 -28l-124 -296l-64 20z" />
    <glyph glyph-name="germandbls" unicode="&#xdf;" horiz-adv-x="1007" vert-adv-y="2458" 
d="M147 0v761h-89v75h89v363q1 154 81 236t216 82q136 -1 214 -87t78 -204q0 -177 -158 -250q110 -40 177 -100t113 -163t47 -233q0 -130 -88 -258q-136 -197 -402 -232v83q145 22 241 97q164 128 164 335q0 148 -86 260t-237 152q-29 7 -82 16v71q93 8 135 38t66.5 80.5
t24.5 106.5q-1 101 -63 157t-133 55q-137 0 -187 -79q-39 -60 -39 -193v-1169h-82z" />
    <glyph glyph-name="racute" unicode="&#xe0;" horiz-adv-x="532" vert-adv-y="2458" 
d="M146 836h82v-109q65 127 185 127q40 0 89 -20l-44 -72q-28 16 -66 16t-80 -28t-60 -76q-20 -46 -22 -99t-2 -126v-449h-82v836zM501 1191l-213 -235l-60 34l187 255z" />
    <glyph glyph-name="aacute" unicode="&#xe1;" horiz-adv-x="1054" vert-adv-y="2458" 
d="M831 437q-1 161 -103 251t-234 90t-225 -102t-93 -260q0 -160 97 -261t243 -101t241 125q74 96 74 258zM91 422q0 221 142 339q111 93 265 93q203 0 328 -163v145h82v-836h-82v150q-115 -172 -316 -172t-321 145q-98 119 -98 299zM716 1191l-213 -235l-60 34l187 255z
" />
    <glyph glyph-name="acircumflex" unicode="&#xe2;" horiz-adv-x="1054" vert-adv-y="2458" 
d="M831 437q-1 161 -103 251t-234 90t-225 -102t-93 -260q0 -160 97 -261t243 -101t241 125q74 96 74 258zM91 422q0 221 142 339q111 93 265 93q203 0 328 -163v145h82v-836h-82v150q-115 -172 -316 -172t-321 145q-98 119 -98 299zM278 1008l249 233l249 -233l-66 -52
l-183 178l-182 -178z" />
    <glyph glyph-name="abreve" unicode="&#xe3;" horiz-adv-x="1054" vert-adv-y="2458" 
d="M831 437q-1 161 -103 251t-234 90t-225 -102t-93 -260q0 -160 97 -261t243 -101t241 125q74 96 74 258zM91 422q0 221 142 339q111 93 265 93q203 0 328 -163v145h82v-836h-82v150q-115 -172 -316 -172t-321 145q-98 119 -98 299zM528 1041q126 0 164 174h78
q-10 -88 -50 -147q-72 -106 -192 -106t-193 106q-40 59 -50 147h78q39 -174 165 -174z" />
    <glyph glyph-name="adieresis" unicode="&#xe4;" horiz-adv-x="1054" vert-adv-y="2458" 
d="M831 437q-1 161 -103 251t-234 90t-225 -102t-93 -260q0 -160 97 -261t243 -101t241 125q74 96 74 258zM91 422q0 221 142 339q111 93 265 93q203 0 328 -163v145h82v-836h-82v150q-115 -172 -316 -172t-321 145q-98 119 -98 299zM621 1084q0 30 22 52q23 22 53 22
t52 -22t22 -52t-22 -53q-22 -22 -53 -22t-53 22t-21 53zM281 1084q0 30 22 52t53 22q30 0 52 -22t22 -52t-22 -53q-22 -22 -52 -22q-32 0 -54 22t-21 53z" />
    <glyph glyph-name="lacute" unicode="&#xe5;" horiz-adv-x="374" vert-adv-y="2458" 
d="M423 1772l-245 -210l-55 47l222 227zM228 1494v-1494h-82v1494h82z" />
    <glyph glyph-name="ae" unicode="&#xe6;" horiz-adv-x="902" vert-adv-y="2458" 
d="M522 778q-156 0 -251 -111t-95 -257t100 -251t256 -105q157 0 292 151v-110q-142 -117 -304 -117q-105 0 -196 46t-151 127q-82 114 -82 260q1 189 123 316t292 127t307 -107v-107q-68 68 -136 103t-155 35zM715 1191l-213 -235l-60 34l187 255z" />
    <glyph glyph-name="ccedilla" unicode="&#xe7;" horiz-adv-x="902" vert-adv-y="2458" 
d="M522 778q-156 0 -251 -111t-95 -257t100 -251t256 -105q157 0 292 151v-110q-142 -117 -304 -117q-105 0 -196 46t-151 127q-82 114 -82 260q1 189 123 316t292 127t307 -107v-107q-68 68 -136 103t-155 35zM560 -139l-196 -252l-63 34l168 261z" />
    <glyph glyph-name="egrave" unicode="&#xe8;" horiz-adv-x="902" vert-adv-y="2458" 
d="M522 778q-156 0 -251 -111t-95 -257t100 -251t256 -105q157 0 292 151v-110q-142 -117 -304 -117q-105 0 -196 46t-151 127q-82 114 -82 260q1 189 123 316t292 127t307 -107v-107q-68 68 -136 103t-155 35zM274 1189l67 52l182 -179l183 179l66 -52l-249 -233z" />
    <glyph glyph-name="eacute" unicode="&#xe9;" horiz-adv-x="990" vert-adv-y="2458" 
d="M497 778q-107 0 -199 -79t-112 -214h619q-35 181 -171 257q-66 36 -137 36zM506 54q123 0 211 80q39 35 85 112l70 -41q-128 -227 -371 -227q-197 0 -313 146q-97 120 -97 298q1 178 115 306q114 126 276 126t268 -90q144 -123 148 -357h-718q9 -219 164 -308
q77 -45 162 -45zM694 1191l-213 -235l-60 34l187 255z" />
    <glyph glyph-name="eogonek" unicode="&#xea;" horiz-adv-x="990" vert-adv-y="2458" 
d="M497 778q-107 0 -199 -79t-112 -214h619q-35 181 -136 237t-172 56zM639 -343q-65 0 -111 41t-46 111q0 111 113 179q-47 -10 -90 -10q-201 0 -317 146q-97 120 -97 298q1 178 115 306q114 126 276 126t268 -90q144 -123 148 -357h-718q9 -219 164 -308q77 -45 162 -45
q123 0 211 80q39 35 85 112l70 -41q-29 -51 -59 -86t-95 -87t-105 -99t-40 -103q-1 -56 27 -78t68 -22t107 36l-19 -81q-52 -28 -117 -28z" />
    <glyph glyph-name="edieresis" unicode="&#xeb;" horiz-adv-x="990" vert-adv-y="2458" 
d="M497 778q-107 0 -199 -79t-112 -214h619q-35 181 -171 257q-66 36 -137 36zM506 54q123 0 211 80q39 35 85 112l70 -41q-128 -227 -371 -227q-197 0 -313 146q-97 120 -97 298q1 178 115 306q114 126 276 126t268 -90q144 -123 148 -357h-718q9 -219 164 -308
q77 -45 162 -45zM597 1084q0 30 22 52q23 22 53 22t52 -22t22 -52t-22 -53q-22 -22 -53 -22t-53 22t-21 53zM257 1084q0 30 22 52t53 22q30 0 52 -22t22 -52t-22 -53q-22 -22 -52 -22q-32 0 -54 22t-21 53z" />
    <glyph glyph-name="ecaron" unicode="&#xec;" horiz-adv-x="990" vert-adv-y="2458" 
d="M497 778q-107 0 -199 -79t-112 -214h619q-35 181 -171 257q-66 36 -137 36zM506 54q123 0 211 80q39 35 85 112l70 -41q-128 -227 -371 -227q-197 0 -313 146q-97 120 -97 298q1 178 115 306q114 126 276 126t268 -90q144 -123 148 -357h-718q9 -219 164 -308
q77 -45 162 -45zM255 1189l67 52l182 -179l183 179l66 -52l-249 -233z" />
    <glyph glyph-name="iacute" unicode="&#xed;" horiz-adv-x="375" vert-adv-y="2458" 
d="M228 836v-836h-82v836h82zM405 1191l-213 -235l-60 34l187 255z" />
    <glyph glyph-name="icircumflex" unicode="&#xee;" horiz-adv-x="374" vert-adv-y="2458" 
d="M-24 1008l211 233l211 -233l-65 -52l-146 170l-146 -170zM228 836v-836h-82v836h82z" />
    <glyph glyph-name="dcaron" unicode="&#xef;" horiz-adv-x="1195" vert-adv-y="2458" 
d="M831 437q-1 161 -103 251t-234 90t-225 -102t-93 -260q0 -160 97 -261t243 -101t241 125q74 96 74 258zM91 422q0 221 142 339q111 93 265 93q203 0 328 -163v803h82v-1494h-82v150q-115 -172 -316 -172t-321 145q-98 119 -98 299zM1102 1501l94 -27l-120 -293l-65 21z
" />
    <glyph glyph-name="dmacron" unicode="&#xf0;" horiz-adv-x="1054" vert-adv-y="2458" 
d="M830 437q0 161 -102 251t-234 90t-225 -102t-93 -260q0 -160 96 -261t242 -101t242 125q74 96 74 258zM91 422q0 220 142 339q111 93 265 93q202 0 327 -163v510h-248v75h248v218h82v-218h137v-75h-137v-1201h-82v150q-115 -172 -315 -172q-201 0 -321 145
q-98 119 -98 299z" />
    <glyph glyph-name="nacute" unicode="&#xf1;" horiz-adv-x="901" vert-adv-y="2458" 
d="M228 706q96 148 239 148q177 0 247 -116q41 -69 41 -211v-527h-82v527q0 119 -30 170q-48 81 -177 81t-194 -114q-30 -52 -37 -106t-7 -123v-435h-82v836h82v-130zM641 1191l-213 -235l-60 34l187 255z" />
    <glyph glyph-name="ncaron" unicode="&#xf2;" horiz-adv-x="901" vert-adv-y="2458" 
d="M228 706q96 148 239 148q177 0 247 -116q41 -69 41 -211v-527h-82v527q0 119 -30 170q-48 81 -177 81t-194 -114q-30 -52 -37 -106t-7 -123v-435h-82v836h82v-130zM194 1189l67 52l182 -179l183 179l66 -52l-249 -233z" />
    <glyph glyph-name="oacute" unicode="&#xf3;" horiz-adv-x="1058" vert-adv-y="2458" 
d="M881 428q-1 148 -107 248q-106 102 -259 102t-257 -127q-82 -101 -82 -245t103 -248t247 -104q79 0 152 34t124 96q79 96 79 244zM91 428q0 176 131 301q130 125 312 125t307 -128t125 -324q0 -194 -153 -321q-124 -103 -283 -103q-97 0 -186 42t-152 114
q-101 118 -101 294zM728 1191l-213 -235l-60 34l187 255z" />
    <glyph glyph-name="ocircumflex" unicode="&#xf4;" horiz-adv-x="1058" vert-adv-y="2458" 
d="M881 428q-1 148 -107 248q-106 102 -259 102t-257 -127q-82 -101 -82 -245t103 -248t247 -104q79 0 152 34t124 96q79 96 79 244zM91 428q0 176 131 301q130 125 312 125t307 -128t125 -324q0 -194 -153 -321q-124 -103 -283 -103q-97 0 -186 42t-152 114
q-101 118 -101 294zM279 1008l249 233l249 -233l-66 -52l-183 178l-182 -178z" />
    <glyph glyph-name="ohungarumlaut" unicode="&#xf5;" horiz-adv-x="1058" vert-adv-y="2458" 
d="M881 428q-1 148 -107 248q-106 102 -259 102t-257 -127q-82 -101 -82 -245t103 -248t247 -104q79 0 152 34t124 96q79 96 79 244zM91 428q0 176 131 301q130 125 312 125t307 -128t125 -324q0 -194 -153 -321q-124 -103 -283 -103q-97 0 -186 42t-152 114
q-101 118 -101 294zM618 1191l-209 -235l-56 34l187 255zM857 1191l-209 -235l-56 34l187 255z" />
    <glyph glyph-name="odieresis" unicode="&#xf6;" horiz-adv-x="1058" vert-adv-y="2458" 
d="M881 428q-1 148 -107 248q-106 102 -259 102t-257 -127q-82 -101 -82 -245t103 -248t247 -104q79 0 152 34t124 96q79 96 79 244zM91 428q0 176 131 301q130 125 312 125t307 -128t125 -324q0 -194 -153 -321q-124 -103 -283 -103q-97 0 -186 42t-152 114
q-101 118 -101 294zM624 1084q0 30 22 52t52 22t53 -22q22 -22 22 -52t-22 -53q-22 -22 -53 -22q-30 0 -52 22t-22 53zM284 1084q0 30 22 52t53 22t53 -22t21 -52q1 -30 -21 -53q-22 -22 -54 -22t-52 22q-22 22 -22 53z" />
    <glyph glyph-name="divide" unicode="&#xf7;" horiz-adv-x="1120" vert-adv-y="2458" 
d="M560 983q31 0 53 -22t22 -53t-22 -53t-53 -22t-53 22t-22 53t22 53t53 22zM560 547q31 0 53 -22t22 -53t-22 -53t-53 -22t-53 22t-22 53t22 53t53 22zM64 655v82h991v-82h-991z" />
    <glyph glyph-name="rcaron" unicode="&#xf8;" horiz-adv-x="532" vert-adv-y="2458" 
d="M68 1189l67 52l169 -179l168 179l67 -52l-235 -233zM146 836h82v-109q65 127 184 127q41 0 89 -20l-43 -72q-28 16 -66 16t-79.5 -29t-60.5 -75q-20 -46 -22 -99t-2 -126v-449h-82v836z" />
    <glyph glyph-name="uring" unicode="&#xf9;" horiz-adv-x="893" vert-adv-y="2458" 
d="M228 836v-498q0 -132 26 -182t80 -76t114 -26t114 28q52 28 78 76q26 49 25 180v498h82v-527q0 -108 -20 -160q-35 -87 -115 -129t-165 -42q-154 0 -241 103q-44 53 -52 109t-8 119v527h82zM446 1196q-36 0 -60 -24t-25 -60q1 -34 25 -59t60 -25t60 24q25 24 25 60
t-25 60q-24 24 -60 24zM446 956q-65 0 -111 46t-46 112q0 64 46 110t111 46t111 -46t46 -111t-46 -111t-111 -46z" />
    <glyph glyph-name="uacute" unicode="&#xfa;" horiz-adv-x="893" vert-adv-y="2458" 
d="M228 836v-498q0 -132 26 -182t80 -76t114 -26t114 28q52 28 78 76q26 49 25 180v498h82v-527q0 -108 -20 -160q-35 -87 -115 -129t-165 -42q-154 0 -241 103q-44 53 -52 109t-8 119v527h82zM644 1191l-213 -235l-60 34l187 255z" />
    <glyph glyph-name="uhungarumlaut" unicode="&#xfb;" horiz-adv-x="893" vert-adv-y="2458" 
d="M228 836v-498q0 -132 26 -182t80 -76t114 -26t114 28q52 28 78 76q26 49 25 180v498h82v-527q0 -108 -20 -160q-35 -87 -115 -129t-165 -42q-154 0 -241 103q-44 53 -52 109t-8 119v527h82zM534 1191l-209 -235l-56 34l187 255zM773 1191l-209 -235l-56 34l187 255z" />
    <glyph glyph-name="udieresis" unicode="&#xfc;" horiz-adv-x="893" vert-adv-y="2458" 
d="M228 836v-498q0 -132 26 -182t80 -76t114 -26t114 28q52 28 78 76q26 49 25 180v498h82v-527q0 -108 -20 -160q-35 -87 -115 -129t-165 -42q-154 0 -241 103q-44 53 -52 109t-8 119v527h82zM542 1084q0 30 22 52t52 22t53 -22q22 -22 22 -52t-22 -53q-22 -22 -53 -22
q-30 0 -52 22t-22 53zM202 1084q0 30 22 52t53 22t53 -22t21 -52q1 -30 -21 -53q-22 -22 -54 -22t-52 22q-22 22 -22 53z" />
    <glyph glyph-name="yacute" unicode="&#xfd;" horiz-adv-x="877" vert-adv-y="2458" 
d="M411 -14l-395 850h96l342 -742l311 742h95l-560 -1325h-93zM636 1191l-213 -235l-60 34l187 255z" />
    <glyph glyph-name="tcommaaccent" unicode="&#xfe;" horiz-adv-x="398" vert-adv-y="2458" 
d="M235 761v-761h-82v761h-93v75h93v299h82v-299h146v-75h-146zM151 -96l94 -26l-120 -280l-65 22z" />
    <glyph glyph-name="dotaccent" unicode="&#xff;" vert-adv-y="2458" 
d="M512 1166q32 0 55 -23t23 -55t-23 -55.5t-55 -23.5t-55.5 23.5t-23.5 55.5t23.5 55t55.5 23z" />
    <glyph glyph-name="Amacron" unicode="&#x100;" horiz-adv-x="1197" vert-adv-y="2458" 
d="M856 531l-256 646l-259 -646h515zM889 449h-582l-181 -449h-99l574 1406l568 -1406h-99zM318 1632h560v-89h-560v89z" />
    <glyph glyph-name="amacron" unicode="&#x101;" horiz-adv-x="1054" vert-adv-y="2458" 
d="M831 437q-1 161 -103 251t-234 90t-225 -102t-93 -260q0 -160 97 -261t243 -101t241 125q74 96 74 258zM91 422q0 221 142 339q111 93 265 93q203 0 328 -163v145h82v-836h-82v150q-115 -172 -316 -172t-321 145q-98 119 -98 299zM269 1114h511v-78h-511v78z" />
    <glyph glyph-name="Abreve" unicode="&#x102;" horiz-adv-x="1197" vert-adv-y="2458" 
d="M856 531l-256 646l-259 -646h515zM889 449h-582l-181 -449h-99l574 1406l568 -1406h-99zM598 1559q128 0 168 152h86q-10 -88 -53 -143q-75 -99 -201 -99t-201 99q-43 55 -53 143h86q40 -152 168 -152z" />
    <glyph glyph-name="abreve" unicode="&#x103;" horiz-adv-x="1054" vert-adv-y="2458" 
d="M831 437q-1 161 -103 251t-234 90t-225 -102t-93 -260q0 -160 97 -261t243 -101t241 125q74 96 74 258zM91 422q0 221 142 339q111 93 265 93q203 0 328 -163v145h82v-836h-82v150q-115 -172 -316 -172t-321 145q-98 119 -98 299zM528 1041q126 0 164 174h78
q-10 -88 -50 -147q-72 -106 -192 -106t-193 106q-40 59 -50 147h78q39 -174 165 -174z" />
    <glyph glyph-name="Aogonek" unicode="&#x104;" horiz-adv-x="1197" vert-adv-y="2458" 
d="M856 531l-256 646l-259 -646h515zM1001 -206q0 -104 105 -104q53 0 121 38l-21 -84q-66 -28 -134 -28t-116 43t-49 131q0 88 76 151q29 24 87 59l-181 449h-582l-181 -449h-99l574 1406l568 -1406q-168 -102 -168 -206z" />
    <glyph glyph-name="aogonek" unicode="&#x105;" horiz-adv-x="1054" vert-adv-y="2458" 
d="M831 437q-1 161 -103 251t-234 90t-225 -102t-93 -260q0 -160 97 -261t243 -101t241 125q74 96 74 258zM91 422q0 221 142 339q111 93 265 93q203 0 328 -163v145h82v-836q-147 -86 -147 -188q-1 -50 27 -72t68 -23q40 0 108 36l-19 -82q-53 -27 -118 -27t-111 41
t-46 112q0 123 156 203v150q-115 -172 -316 -172t-321 145q-98 119 -98 299z" />
    <glyph glyph-name="Cacute" unicode="&#x106;" horiz-adv-x="1386" vert-adv-y="2458" 
d="M809 1384q261 0 467 -177v-122q-79 89 -159 133q-148 83 -289 83t-264 -58t-211 -161q-153 -177 -153 -408q0 -276 214 -457q185 -157 402 -157q174 0 342 104q53 33 118 103v-120q-217 -170 -454 -170q-145 -1 -284 61t-242 171q-187 200 -187 470q0 147 61 283t172 236
q206 186 467 186zM1051 1671l-271 -210l-72 53l249 222z" />
    <glyph glyph-name="cacute" unicode="&#x107;" horiz-adv-x="902" vert-adv-y="2458" 
d="M522 778q-156 0 -251 -111t-95 -257t100 -251t256 -105q157 0 292 151v-110q-142 -117 -304 -117q-105 0 -196 46t-151 127q-82 114 -82 260q1 189 123 316t292 127t307 -107v-107q-68 68 -136 103t-155 35zM715 1191l-213 -235l-60 34l187 255z" />
    <glyph glyph-name="Ccaron" unicode="&#x10c;" horiz-adv-x="1386" vert-adv-y="2458" 
d="M809 1384q261 0 467 -177v-122q-79 89 -159 133q-148 83 -289 83t-264 -58t-211 -161q-153 -177 -153 -408q0 -276 214 -457q185 -157 402 -157q174 0 342 104q53 33 118 103v-120q-217 -170 -454 -170q-145 -1 -284 61t-242 171q-187 200 -187 470q0 147 61 283t172 236
q206 186 467 186zM1070 1678l-255 -215l-255 215l74 57l181 -153l182 153z" />
    <glyph glyph-name="ccaron" unicode="&#x10d;" horiz-adv-x="902" vert-adv-y="2458" 
d="M522 778q-156 0 -251 -111t-95 -257t100 -251t256 -105q157 0 292 151v-110q-142 -117 -304 -117q-105 0 -196 46t-151 127q-82 114 -82 260q1 189 123 316t292 127t307 -107v-107q-68 68 -136 103t-155 35zM274 1189l67 52l182 -179l183 179l66 -52l-249 -233z" />
    <glyph glyph-name="Dcaron" unicode="&#x10e;" horiz-adv-x="1264" vert-adv-y="2458" 
d="M273 82h180q259 0 435 166t176 434q0 270 -176 436t-435 165h-180v-1201zM184 0v1365h270q309 0 505 -194t196 -488q0 -295 -196 -489t-505 -194h-270zM800 1678l-255 -215l-255 215l74 57l181 -153l182 153z" />
    <glyph glyph-name="dcaron" unicode="&#x10f;" horiz-adv-x="1195" vert-adv-y="2458" 
d="M831 437q-1 161 -103 251t-234 90t-225 -102t-93 -260q0 -160 97 -261t243 -101t241 125q74 96 74 258zM91 422q0 221 142 339q111 93 265 93q203 0 328 -163v803h82v-1494h-82v150q-115 -172 -316 -172t-321 145q-98 119 -98 299zM1102 1501l94 -27l-120 -293l-65 21z
" />
    <glyph glyph-name="Dslash" unicode="&#x110;" horiz-adv-x="1264" vert-adv-y="2458" 
d="M274 82h179q261 0 437 166t175.5 435.5t-185.5 442.5q-166 157 -427 157h-179v-498h341v-82h-341v-621zM185 0v703h-137v82h137v580h270q309 1 505 -193t196 -488t-196 -490q-196 -194 -505 -194h-270z" />
    <glyph glyph-name="dmacron" unicode="&#x111;" horiz-adv-x="1054" vert-adv-y="2458" 
d="M830 437q0 161 -102 251t-234 90t-225 -102t-93 -260q0 -160 96 -261t242 -101t242 125q74 96 74 258zM91 422q0 220 142 339q111 93 265 93q202 0 327 -163v510h-248v75h248v218h82v-218h137v-75h-137v-1201h-82v150q-115 -172 -315 -172q-201 0 -321 145
q-98 119 -98 299z" />
    <glyph glyph-name="Emacron" unicode="&#x112;" horiz-adv-x="948" vert-adv-y="2458" 
d="M838 1283h-565v-494h551v-82h-551v-625h565v-82h-654v1365h654v-82zM232 1632h560v-89h-560v89z" />
    <glyph glyph-name="emacron" unicode="&#x113;" horiz-adv-x="990" vert-adv-y="2458" 
d="M497 778q-107 0 -199 -79t-112 -214h619q-35 181 -171 257q-66 36 -137 36zM506 54q123 0 211 80q39 35 85 112l70 -41q-128 -227 -371 -227q-197 0 -313 146q-97 120 -97 298q1 178 115 306q114 126 276 126t268 -90q144 -123 148 -357h-718q9 -219 164 -308
q77 -45 162 -45zM249 1114h511v-78h-511v78z" />
    <glyph glyph-name="Edotaccent" unicode="&#x116;" horiz-adv-x="948" vert-adv-y="2458" 
d="M838 1283h-565v-494h551v-82h-551v-625h565v-82h-654v1365h654v-82zM513 1677q35 0 59 -24t24 -59t-24 -59t-60 -24q-34 1 -58 25t-24 58t24 59q25 24 59 24z" />
    <glyph glyph-name="edot" unicode="&#x117;" horiz-adv-x="990" vert-adv-y="2458" 
d="M497 778q-107 0 -199 -79t-112 -214h619q-35 181 -171 257q-66 36 -137 36zM506 54q123 0 211 80q39 35 85 112l70 -41q-128 -227 -371 -227q-197 0 -313 146q-97 120 -97 298q1 178 115 306q114 126 276 126t268 -90q144 -123 148 -357h-718q9 -219 164 -308
q77 -45 162 -45zM504 1166q32 0 55 -23t23 -55t-23 -56q-23 -23 -55 -23t-56 23q-23 24 -23 56t23 55q24 23 56 23z" />
    <glyph glyph-name="Eogonek" unicode="&#x118;" horiz-adv-x="948" vert-adv-y="2458" 
d="M669 -205q0 -105 105 -105q54 0 122 38l-21 -84q-65 -28 -133 -28t-118 43q-48 43 -48 129t76 153q33 28 90 59h-558v1365h654v-82h-565v-494h551v-82h-551v-625h565v-82q-169 -100 -169 -205z" />
    <glyph glyph-name="eogonek" unicode="&#x119;" horiz-adv-x="990" vert-adv-y="2458" 
d="M497 778q-107 0 -199 -79t-112 -214h619q-35 181 -136 237t-172 56zM639 -343q-65 0 -111 41t-46 111q0 111 113 179q-47 -10 -90 -10q-201 0 -317 146q-97 120 -97 298q1 178 115 306q114 126 276 126t268 -90q144 -123 148 -357h-718q9 -219 164 -308q77 -45 162 -45
q123 0 211 80q39 35 85 112l70 -41q-29 -51 -59 -86t-95 -87t-105 -99t-40 -103q-1 -56 27 -78t68 -22t107 36l-19 -81q-52 -28 -117 -28z" />
    <glyph glyph-name="Ecaron" unicode="&#x11a;" horiz-adv-x="948" vert-adv-y="2458" 
d="M838 1283h-565v-494h551v-82h-551v-625h565v-82h-654v1365h654v-82zM769 1678l-255 -215l-255 215l74 57l181 -153l182 153z" />
    <glyph glyph-name="ecaron" unicode="&#x11b;" horiz-adv-x="990" vert-adv-y="2458" 
d="M497 778q-107 0 -199 -79t-112 -214h619q-35 181 -171 257q-66 36 -137 36zM506 54q123 0 211 80q39 35 85 112l70 -41q-128 -227 -371 -227q-197 0 -313 146q-97 120 -97 298q1 178 115 306q114 126 276 126t268 -90q144 -123 148 -357h-718q9 -219 164 -308
q77 -45 162 -45zM255 1189l67 52l182 -179l183 179l66 -52l-249 -233z" />
    <glyph glyph-name="Gcedilla" unicode="&#x122;" horiz-adv-x="1580" vert-adv-y="2458" 
d="M895 655h575q0 -133 -16 -211q-49 -238 -297 -378q-159 -90 -325 -89q-166 -1 -306 63t-242 178q-175 196 -175 459q1 153 65 293t181 241q199 173 453 173t440 -147q74 -59 164 -173l-70 -56q-75 100 -143 158t-171 97q-103 38 -221 38t-237 -54t-207 -152
q-164 -182 -164 -431q-1 -248 185 -426t429 -178q203 0 365 121t189 302q5 33 8 90h-480v82zM756 -96l100 -28l-124 -296l-64 20z" />
    <glyph glyph-name="gcedilla" unicode="&#x123;" horiz-adv-x="1067" vert-adv-y="2458" 
d="M506 778q-72 0 -138 -36t-112 -97q-71 -95 -71 -237q1 -142 89 -247t238 -105t254 121q78 91 78 251t-102 255t-236 95zM921 836v-819q0 -158 -32 -240q-54 -138 -183 -207q-91 -48 -206 -48q-170 0 -281 94t-128 264h85q18 -176 164 -246q72 -35 162 -35q175 0 263 125
q74 106 74 293v126q-139 -163 -326 -163t-300 132t-113 314q0 180 122 304t298 124q137 0 238 -81q34 -27 81 -83v146h82zM563 956l-94 26l120 280l65 -22z" />
    <glyph glyph-name="Imacron" unicode="&#x12a;" horiz-adv-x="458" vert-adv-y="2458" 
d="M24 1632h410v-89h-410v89zM273 1365v-1365h-89v1365h89z" />
    <glyph glyph-name="imacron" unicode="&#x12b;" horiz-adv-x="374" vert-adv-y="2458" 
d="M7 1114h360v-78h-360v78zM228 836v-836h-82v836h82z" />
    <glyph glyph-name="Iogonek" unicode="&#x12e;" horiz-adv-x="457" vert-adv-y="2458" 
d="M166 -198q0 -112 89 -112q38 0 89 33l-21 -85q-39 -23 -99 -23t-106 45t-46 128q0 126 112 212v1365h89v-1365q-107 -86 -107 -198z" />
    <glyph glyph-name="iogonek" unicode="&#x12f;" horiz-adv-x="374" vert-adv-y="2458" 
d="M112.5 1113.5q0.5 30.5 22.5 52.5q23 22 53 22t52 -22t22 -52q0 -32 -22 -54t-53 -21q-31 0 -53 22t-21.5 52.5zM140 -184q0 -99 82 -99q40 0 89 29l-19 -81q-42 -21 -100 -21t-100 42t-43 122q0 111 97 192v836h82v-836q-38 -41 -63 -79t-25 -105z" />
    <glyph glyph-name="Kcedilla" unicode="&#x136;" horiz-adv-x="1104" vert-adv-y="2458" 
d="M273 0h-89v1365h89v-635l641 635h122l-669 -658l710 -707h-131l-639 649l-34 -33v-616zM542 -96l100 -28l-124 -296l-64 20z" />
    <glyph glyph-name="kcedilla" unicode="&#x137;" horiz-adv-x="812" vert-adv-y="2458" 
d="M228 1494v-1012l341 354h109l-352 -362l469 -474h-113l-411 414l-43 -43v-371h-82v1494h82zM408 -96l94 -26l-120 -280l-65 22z" />
    <glyph glyph-name="Lacute" unicode="&#x139;" horiz-adv-x="646" vert-adv-y="2458" 
d="M273 1365v-1283h345v-82h-434v1365h89zM517 1671l-271 -210l-72 53l249 222z" />
    <glyph glyph-name="lacute" unicode="&#x13a;" horiz-adv-x="374" vert-adv-y="2458" 
d="M423 1772l-245 -210l-55 47l222 227zM228 1494v-1494h-82v1494h82z" />
    <glyph glyph-name="Lcedilla" unicode="&#x13b;" horiz-adv-x="646" vert-adv-y="2458" 
d="M273 1365v-1283h345v-82h-434v1365h89zM368 -96l100 -28l-124 -296l-64 20z" />
    <glyph glyph-name="lcedilla" unicode="&#x13c;" horiz-adv-x="374" vert-adv-y="2458" 
d="M228 1494v-1494h-82v1494h82zM145 -96l94 -26l-120 -280l-65 22z" />
    <glyph glyph-name="Lcaron" unicode="&#x13d;" horiz-adv-x="646" vert-adv-y="2458" 
d="M273 1365v-1283h345v-82h-434v1365h89zM472 1379l100 -28l-124 -310l-64 19z" />
    <glyph glyph-name="lcaron" unicode="&#x13e;" horiz-adv-x="515" vert-adv-y="2458" 
d="M228 1494v-1494h-82v1494h82zM421 1501l94 -27l-120 -293l-65 21z" />
    <glyph glyph-name="Lslash" unicode="&#x141;" horiz-adv-x="646" vert-adv-y="2458" 
d="M273 82h345v-82h-434v615l-139 -107v98l139 107v652h89v-608l231 171v-98l-231 -171v-577z" />
    <glyph glyph-name="lslash" unicode="&#x142;" horiz-adv-x="401" vert-adv-y="2458" 
d="M242 0h-82v657l-135 -105v96l135 104v742h82v-700l135 104v-95l-135 -104v-699z" />
    <glyph glyph-name="Nacute" unicode="&#x143;" horiz-adv-x="1603" vert-adv-y="2458" 
d="M184 0v1380l1145 -1200v1185h89v-1400l-1145 1200v-1165h-89zM1050 1671l-271 -210l-72 53l249 222z" />
    <glyph glyph-name="nacute" unicode="&#x144;" horiz-adv-x="901" vert-adv-y="2458" 
d="M228 706q96 148 239 148q177 0 247 -116q41 -69 41 -211v-527h-82v527q0 119 -30 170q-48 81 -177 81t-194 -114q-30 -52 -37 -106t-7 -123v-435h-82v836h82v-130zM641 1191l-213 -235l-60 34l187 255z" />
    <glyph glyph-name="Ncedilla" unicode="&#x145;" horiz-adv-x="1603" vert-adv-y="2458" 
d="M184 0v1380l1145 -1200v1185h89v-1400l-1145 1200v-1165h-89zM761 -96l100 -28l-124 -296l-64 20z" />
    <glyph glyph-name="ncedilla" unicode="&#x146;" horiz-adv-x="901" vert-adv-y="2458" 
d="M228 706q96 148 239 148q177 0 247 -116q41 -69 41 -211v-527h-82v527q0 119 -30 170q-48 81 -177 81t-194 -114q-30 -52 -37 -106t-7 -123v-435h-82v836h82v-130zM415 -96l94 -26l-120 -280l-65 22z" />
    <glyph glyph-name="Ncaron" unicode="&#x147;" horiz-adv-x="1603" vert-adv-y="2458" 
d="M184 0v1380l1145 -1200v1185h89v-1400l-1145 1200v-1165h-89zM1056 1678l-255 -215l-255 215l74 57l181 -153l182 153z" />
    <glyph glyph-name="ncaron" unicode="&#x148;" horiz-adv-x="901" vert-adv-y="2458" 
d="M228 706q96 148 239 148q177 0 247 -116q41 -69 41 -211v-527h-82v527q0 119 -30 170q-48 81 -177 81t-194 -114q-30 -52 -37 -106t-7 -123v-435h-82v836h82v-130zM194 1189l67 52l182 -179l183 179l66 -52l-249 -233z" />
    <glyph glyph-name="Omacron" unicode="&#x14c;" horiz-adv-x="1634" vert-adv-y="2458" 
d="M807 1301q-123 0 -243 -56t-209 -156q-155 -173 -155 -408q0 -131 52 -249t147 -206q182 -166 418 -166q129 0 251 56t211 156q155 173 155 425t-200 437q-179 167 -427 167zM828 1384q140 0 276 -62t238 -174q183 -199 183 -467q-1 -148 -61 -283t-171 -235
q-207 -186 -476 -186q-147 0 -285 62t-241 174q-182 199 -182 486t233 499q204 186 486 186zM537 1632h560v-89h-560v89z" />
    <glyph glyph-name="omacron" unicode="&#x14d;" horiz-adv-x="1058" vert-adv-y="2458" 
d="M881 428q-1 148 -107 248q-106 102 -259 102t-257 -127q-82 -101 -82 -245t103 -248t247 -104q79 0 152 34t124 96q79 96 79 244zM91 428q0 176 131 301q130 125 312 125t307 -128t125 -324q0 -194 -153 -321q-124 -103 -283 -103q-97 0 -186 42t-152 114
q-101 118 -101 294zM273 1114h511v-78h-511v78z" />
    <glyph glyph-name="Odblacute" unicode="&#x150;" horiz-adv-x="1634" vert-adv-y="2458" 
d="M807 1301q-123 0 -243 -56t-209 -156q-155 -173 -155 -408q0 -131 52 -249t147 -206q182 -166 418 -166q129 0 251 56t211 156q155 173 155 425t-200 437q-179 167 -427 167zM828 1384q140 0 276 -62t238 -174q183 -199 183 -467q-1 -148 -61 -283t-171 -235
q-207 -186 -476 -186q-147 0 -285 62t-241 174q-182 199 -182 486t233 499q204 186 486 186zM938 1671l-272 -210l-66 53l249 222zM1225 1671l-272 -210l-66 53l249 222z" />
    <glyph glyph-name="odblacute" unicode="&#x151;" horiz-adv-x="1058" vert-adv-y="2458" 
d="M881 428q-1 148 -107 248q-106 102 -259 102t-257 -127q-82 -101 -82 -245t103 -248t247 -104q79 0 152 34t124 96q79 96 79 244zM91 428q0 176 131 301q130 125 312 125t307 -128t125 -324q0 -194 -153 -321q-124 -103 -283 -103q-97 0 -186 42t-152 114
q-101 118 -101 294zM618 1191l-209 -235l-56 34l187 255zM857 1191l-209 -235l-56 34l187 255z" />
    <glyph glyph-name="Sacute" unicode="&#x152;" horiz-adv-x="1049" vert-adv-y="2458" 
d="M531 1301q-118 0 -185 -82t-67 -176t72 -159q45 -40 209 -118t234 -125q145 -95 145 -270t-147 -295q-121 -99 -271 -99q-293 0 -412 294l76 36q41 -89 80 -137t107 -79t141 -31q137 0 236 94t99 226t-134 209q-46 27 -230 117t-240 160t-56 177q0 161 105 251t243 90
t243 -85q54 -43 92 -109l-66 -55q-41 63 -76 95q-80 71 -198 71zM773 1671l-271 -210l-72 53l249 222z" />
    <glyph glyph-name="sacute" unicode="&#x153;" horiz-adv-x="700" vert-adv-y="2458" 
d="M375 778q-68 0 -106 -44t-38 -94q1 -51 41 -82t140 -69t142 -69q82 -62 82 -184t-83 -190t-188 -68q-143 0 -229 105q-37 44 -58 116l79 25q60 -170 206 -170q92 0 140 60t48 125t-35 101q-36 36 -140 74t-167 86t-63 144t72 154q72 56 147 56q150 0 223 -136l-70 -35
q-51 95 -143 95zM566 1191l-213 -235l-60 34l187 255z" />
    <glyph glyph-name="Racute" unicode="&#x154;" horiz-adv-x="956" vert-adv-y="2458" 
d="M273 726h131q140 0 225 70t85 209q0 173 -130 243q-66 36 -199 35h-112v-557zM273 645v-645h-89v1365h194q136 0 210 -27q112 -42 164 -132t52 -203q0 -223 -173 -314q-70 -37 -217 -44l447 -645h-108l-440 645h-40zM679 1671l-271 -210l-72 53l249 222z" />
    <glyph glyph-name="racute" unicode="&#x155;" horiz-adv-x="532" vert-adv-y="2458" 
d="M146 836h82v-109q65 127 185 127q40 0 89 -20l-44 -72q-28 16 -66 16t-80 -28t-60 -76q-20 -46 -22 -99t-2 -126v-449h-82v836zM501 1191l-213 -235l-60 34l187 255z" />
    <glyph glyph-name="Rcedilla" unicode="&#x156;" horiz-adv-x="956" vert-adv-y="2458" 
d="M273 726h131q140 0 225 70t85 209q0 173 -130 243q-66 36 -199 35h-112v-557zM273 645v-645h-89v1365h194q136 0 210 -27q112 -42 164 -132t52 -203q0 -223 -173 -314q-70 -37 -217 -44l447 -645h-108l-440 645h-40zM448 -96l100 -28l-124 -296l-64 20z" />
    <glyph glyph-name="rcedilla" unicode="&#x157;" horiz-adv-x="532" vert-adv-y="2458" 
d="M146 836h82v-109q65 127 185 127q40 0 89 -20l-44 -72q-28 16 -66 16t-80 -28t-60 -76q-20 -46 -22 -99t-2 -126v-449h-82v836zM152 -96l94 -26l-120 -280l-65 22z" />
    <glyph glyph-name="Rcaron" unicode="&#x158;" horiz-adv-x="956" vert-adv-y="2458" 
d="M273 726h131q140 0 225 70t85 209q0 173 -130 243q-66 36 -199 35h-112v-557zM273 645v-645h-89v1365h194q136 0 210 -27q112 -42 164 -132t52 -203q0 -223 -173 -314q-70 -37 -217 -44l447 -645h-108l-440 645h-40zM705 1678l-255 -215l-255 215l74 57l181 -153l182 153
z" />
    <glyph glyph-name="rcaron" unicode="&#x159;" horiz-adv-x="532" vert-adv-y="2458" 
d="M68 1189l67 52l169 -179l168 179l67 -52l-235 -233zM146 836h82v-109q65 127 184 127q41 0 89 -20l-43 -72q-28 16 -66 16t-79.5 -29t-60.5 -75q-20 -46 -22 -99t-2 -126v-449h-82v836z" />
    <glyph glyph-name="Sacute" unicode="&#x15a;" horiz-adv-x="1049" vert-adv-y="2458" 
d="M531 1301q-118 0 -185 -82t-67 -176t72 -159q45 -40 209 -118t234 -125q145 -95 145 -270t-147 -295q-121 -99 -271 -99q-293 0 -412 294l76 36q41 -89 80 -137t107 -79t141 -31q137 0 236 94t99 226t-134 209q-46 27 -230 117t-240 160t-56 177q0 161 105 251t243 90
t243 -85q54 -43 92 -109l-66 -55q-41 63 -76 95q-80 71 -198 71zM773 1671l-271 -210l-72 53l249 222z" />
    <glyph glyph-name="sacute" unicode="&#x15b;" horiz-adv-x="700" vert-adv-y="2458" 
d="M375 778q-68 0 -106 -44t-38 -94q1 -51 41 -82t140 -69t142 -69q82 -62 82 -184t-83 -190t-188 -68q-143 0 -229 105q-37 44 -58 116l79 25q60 -170 206 -170q92 0 140 60t48 125t-35 101q-36 36 -140 74t-167 86t-63 144t72 154q72 56 147 56q150 0 223 -136l-70 -35
q-51 95 -143 95zM566 1191l-213 -235l-60 34l187 255z" />
    <glyph glyph-name="Scedilla" unicode="&#x15e;" horiz-adv-x="1049" vert-adv-y="2458" 
d="M531 1301q-118 0 -185 -82t-67 -176t72 -159q45 -40 209 -118t234 -125q145 -95 145 -270t-147 -295q-121 -99 -271 -99q-293 0 -412 294l76 36q41 -89 80 -137t107 -79t141 -31q137 0 236 94t99 226t-134 209q-46 27 -230 117t-240 160t-56 177q0 161 105 251t243 90
t243 -85q54 -43 92 -109l-66 -55q-41 63 -76 95q-80 71 -198 71zM597 -147l-210 -259l-73 37l180 273z" />
    <glyph glyph-name="scedilla" unicode="&#x15f;" horiz-adv-x="700" vert-adv-y="2458" 
d="M375 778q-68 0 -106 -44t-38 -94q1 -51 41 -82t140 -69t142 -69q82 -62 82 -184t-83 -190t-188 -68q-143 0 -229 105q-37 44 -58 116l79 25q60 -170 206 -170q92 0 140 60t48 125t-35 101q-36 36 -140 74t-167 86t-63 144t72 154q72 56 147 56q150 0 223 -136l-70 -35
q-51 95 -143 95zM432 -139l-196 -252l-63 34l168 261z" />
    <glyph glyph-name="Scaron" unicode="&#x160;" horiz-adv-x="1049" vert-adv-y="2458" 
d="M531 1301q-118 0 -185 -82t-67 -176t72 -159q45 -40 209 -118t234 -125q145 -95 145 -270t-147 -295q-121 -99 -271 -99q-293 0 -412 294l76 36q41 -89 80 -137t107 -79t141 -31q137 0 236 94t99 226t-134 209q-46 27 -230 117t-240 160t-56 177q0 161 105 251t243 90
t243 -85q54 -43 92 -109l-66 -55q-41 63 -76 95q-80 71 -198 71zM797 1678l-255 -215l-255 215l74 57l181 -153l182 153z" />
    <glyph glyph-name="scaron" unicode="&#x161;" horiz-adv-x="700" vert-adv-y="2458" 
d="M375 778q-68 0 -106 -44t-38 -94q1 -51 41 -82t140 -69t142 -69q82 -62 82 -184t-83 -190t-188 -68q-143 0 -229 105q-37 44 -58 116l79 25q60 -170 206 -170q92 0 140 60t48 125t-35 101q-36 36 -140 74t-167 86t-63 144t72 154q72 56 147 56q150 0 223 -136l-70 -35
q-51 95 -143 95zM123 1189l67 52l182 -179l183 179l66 -52l-249 -233z" />
    <glyph glyph-name="Tcedilla" unicode="&#x162;" horiz-adv-x="849" vert-adv-y="2458" 
d="M467 1283v-1283h-89v1283h-351v82h795v-82h-355zM373 -96l100 -28l-124 -296l-64 20z" />
    <glyph glyph-name="tcedilla" unicode="&#x163;" horiz-adv-x="398" vert-adv-y="2458" 
d="M235 761v-761h-82v761h-93v75h93v299h82v-299h146v-75h-146zM151 -96l94 -26l-120 -280l-65 22z" />
    <glyph glyph-name="Tcaron" unicode="&#x164;" horiz-adv-x="849" vert-adv-y="2458" 
d="M467 1283v-1283h-89v1283h-351v82h795v-82h-355zM679 1678l-255 -215l-255 215l74 57l181 -153l182 153z" />
    <glyph glyph-name="tcaron" unicode="&#x165;" horiz-adv-x="523" vert-adv-y="2458" 
d="M236 761v-761h-82v761h-93v75h93v299h82v-299h146v-75h-146zM429 1378l94 -27l-120 -293l-65 21z" />
    <glyph glyph-name="Umacron" unicode="&#x16a;" horiz-adv-x="1297" vert-adv-y="2458" 
d="M273 1365v-854q0 -149 15 -209q28 -116 136 -179t234 -63q124 0 230 74t126 197q9 54 9 180v854h89v-878q0 -161 -22 -227q-46 -140 -190 -219q-116 -64 -266 -64q-150 1 -278 89t-160 229q-12 57 -12 192v878h89zM368 1632h560v-89h-560v89z" />
    <glyph glyph-name="umacron" unicode="&#x16b;" horiz-adv-x="893" vert-adv-y="2458" 
d="M228 836v-498q0 -132 26 -182t80 -76t114 -26t114 28q52 28 78 76q26 49 25 180v498h82v-527q0 -108 -20 -160q-35 -87 -115 -129t-165 -42q-154 0 -241 103q-44 53 -52 109t-8 119v527h82zM191 1114h511v-78h-511v78z" />
    <glyph glyph-name="Uring" unicode="&#x16e;" horiz-adv-x="1297" vert-adv-y="2458" 
d="M273 1365v-854q0 -149 15 -209q28 -116 136 -179t234 -63q124 0 230 74t126 197q9 54 9 180v854h89v-878q0 -161 -22 -227q-46 -140 -190 -219q-116 -64 -266 -64q-150 1 -278 89t-160 229q-12 57 -12 192v878h89zM648 1694q-36 0 -60 -24t-25 -60q1 -34 25 -59t60 -25
t60 24q25 24 25 60t-25 60q-24 24 -60 24zM648 1775q68 0 116 -48t48 -116t-48 -116t-116 -48q-68 1 -116 49t-48 116t48 115q48 48 116 48z" />
    <glyph glyph-name="uring" unicode="&#x16f;" horiz-adv-x="893" vert-adv-y="2458" 
d="M228 836v-498q0 -132 26 -182t80 -76t114 -26t114 28q52 28 78 76q26 49 25 180v498h82v-527q0 -108 -20 -160q-35 -87 -115 -129t-165 -42q-154 0 -241 103q-44 53 -52 109t-8 119v527h82zM446 1196q-36 0 -60 -24t-25 -60q1 -34 25 -59t60 -25t60 24q25 24 25 60
t-25 60q-24 24 -60 24zM446 956q-65 0 -111 46t-46 112q0 64 46 110t111 46t111 -46t46 -111t-46 -111t-111 -46z" />
    <glyph glyph-name="Udblacute" unicode="&#x170;" horiz-adv-x="1297" vert-adv-y="2458" 
d="M273 1365v-854q0 -149 15 -209q28 -116 136 -179t234 -63q124 0 230 74t126 197q9 54 9 180v854h89v-878q0 -161 -22 -227q-46 -140 -190 -219q-116 -64 -266 -64q-150 1 -278 89t-160 229q-12 57 -12 192v878h89zM763 1671l-272 -210l-66 53l249 222zM1050 1671
l-272 -210l-66 53l249 222z" />
    <glyph glyph-name="udblacute" unicode="&#x171;" horiz-adv-x="893" vert-adv-y="2458" 
d="M228 836v-498q0 -132 26 -182t80 -76t114 -26t114 28q52 28 78 76q26 49 25 180v498h82v-527q0 -108 -20 -160q-35 -87 -115 -129t-165 -42q-154 0 -241 103q-44 53 -52 109t-8 119v527h82zM534 1191l-209 -235l-56 34l187 255zM773 1191l-209 -235l-56 34l187 255z" />
    <glyph glyph-name="Uogonek" unicode="&#x172;" horiz-adv-x="1297" vert-adv-y="2458" 
d="M834 -356q-68 0 -118 43q-48 43 -48 122q0 110 113 185q-72 -17 -132 -17q-165 1 -293 89t-160 229q-12 57 -12 192v878h89v-854q0 -149 15 -209q28 -116 136 -179t234 -63q124 0 230 74t126 197q9 54 9 180v854h89v-878q-1 -159 -16 -209q-36 -124 -186 -239t-149 -218
q0 -103 106 -103q54 0 121 38l-21 -85q-65 -27 -133 -27z" />
    <glyph glyph-name="uogonek" unicode="&#x173;" horiz-adv-x="893" vert-adv-y="2458" 
d="M589 -336q-65 0 -111 41t-45 115q0 74 51 127q13 15 52 42q-43 -11 -85 -11q-159 0 -245 103q-44 53 -52 109t-8 119v527h82v-498q0 -132 26 -182t80 -76t114 -26t113 27.5t79 76.5t25 180v498h82v-527q1 -105 -15 -149t-45 -80q-29 -34 -81 -89q-82 -85 -82 -160
q0 -49 27 -71t67 -23q40 0 108 36l-19 -81q-53 -28 -118 -28z" />
    <glyph glyph-name="zacute" unicode="&#x178;" horiz-adv-x="927" vert-adv-y="2458" 
d="M886 75v-75h-849l682 761h-573v75h744l-676 -761h672zM708 1191l-213 -235l-60 34l187 255z" />
    <glyph glyph-name="Zacute" unicode="&#x179;" horiz-adv-x="1137" vert-adv-y="2458" 
d="M1037 82v-82h-962l833 1283h-753v82h906l-834 -1283h810zM844 1671l-271 -210l-72 53l249 222z" />
    <glyph glyph-name="zacute" unicode="&#x17a;" horiz-adv-x="927" vert-adv-y="2458" 
d="M886 75v-75h-849l682 761h-573v75h744l-676 -761h672zM708 1191l-213 -235l-60 34l187 255z" />
    <glyph glyph-name="Zdot" unicode="&#x17b;" horiz-adv-x="1137" vert-adv-y="2458" 
d="M1037 82v-82h-962l833 1283h-753v82h906l-834 -1283h810zM609 1677q35 0 59 -24t24 -59t-24 -59t-60 -24q-34 1 -58 25t-24 58t24 59q25 24 59 24z" />
    <glyph glyph-name="zdot" unicode="&#x17c;" horiz-adv-x="927" vert-adv-y="2458" 
d="M886 75v-75h-849l682 761h-573v75h744l-676 -761h672zM518 1166q32 0 55 -23t23 -55t-23 -56q-23 -23 -55 -23t-56 23q-23 24 -23 56t23 55q24 23 56 23z" />
    <glyph glyph-name="Zcaron" unicode="&#x17d;" horiz-adv-x="1137" vert-adv-y="2458" 
d="M1037 82v-82h-962l833 1283h-753v82h906l-834 -1283h810zM864 1678l-255 -215l-255 215l74 57l181 -153l182 153z" />
    <glyph glyph-name="zcaron" unicode="&#x17e;" horiz-adv-x="927" vert-adv-y="2458" 
d="M886 75v-75h-849l682 761h-573v75h744l-676 -761h672zM269 1189l67 52l182 -179l183 179l66 -52l-249 -233z" />
    <glyph glyph-name="caron" unicode="&#x2c7;" vert-adv-y="2458" 
d="M263 1189l67 52l182 -179l183 179l66 -52l-249 -233z" />
    <glyph glyph-name="breve" unicode="&#x2d8;" vert-adv-y="2458" 
d="M512 1041q126 0 165 174h78q-10 -88 -50 -147q-73 -106 -193 -106t-192 106q-40 59 -50 147h78q38 -174 164 -174z" />
    <glyph glyph-name="ogonek" unicode="&#x2db;" vert-adv-y="2458" 
d="M730 -188q0 -50 28 -72t67 -23q40 0 107 36l-19 -82q-51 -27 -117 -27t-112 41t-45 119q0 78 65 137q31 28 91 59h82q-147 -86 -147 -188z" />
    <glyph glyph-name="hungarumlaut" unicode="&#x2dd;" vert-adv-y="2458" 
d="M591 1191l-209 -235l-56 34l187 255zM830 1191l-209 -235l-56 34l187 255z" />
    <glyph glyph-name="semicolon" unicode="&#x37e;" horiz-adv-x="415" vert-adv-y="2458" 
d="M214.5 705q-30.5 0 -52.5 22t-22 53q0 30 22 52t52 22t52.5 -22t22.5 -52t-22 -52.5t-52.5 -22.5zM200 134l83 -25l-152 -410l-54 20z" />
    <glyph glyph-name="hyphen" unicode="&#x2010;" horiz-adv-x="344" vert-adv-y="2458" 
d="M0 464h344v-82h-344v82z" />
    <glyph glyph-name="nbhyphen" unicode="&#x2011;" horiz-adv-x="344" vert-adv-y="2458" 
d="M0 464h344v-82h-344v82z" />
    <glyph glyph-name="figuredash" unicode="&#x2012;" horiz-adv-x="1120" vert-adv-y="2458" 
d="M255 464h609v-82h-609v82z" />
    <glyph glyph-name="endash" unicode="&#x2013;" horiz-adv-x="1120" vert-adv-y="2458" 
d="M255 464h609v-82h-609v82z" />
    <glyph glyph-name="emdash" unicode="&#x2014;" horiz-adv-x="1034" vert-adv-y="2458" 
d="M0 464h1034v-82h-1034v82z" />
    <glyph glyph-name="horizontalbar" unicode="&#x2015;" horiz-adv-x="1034" vert-adv-y="2458" 
d="M0 464h1034v-82h-1034v82z" />
    <glyph glyph-name="quoteleft" unicode="&#x2018;" horiz-adv-x="465" vert-adv-y="2458" 
d="M213 1009l-83 25l152 410l54 -20z" />
    <glyph glyph-name="quoteright" unicode="&#x2019;" horiz-adv-x="465" vert-adv-y="2458" 
d="M253 1444l83 -25l-152 -410l-54 20z" />
    <glyph glyph-name="quotesinglbase" unicode="&#x201a;" horiz-adv-x="465" vert-adv-y="2458" 
d="M253 134l83 -25l-152 -410l-54 20z" />
    <glyph glyph-name="quotedblleft" unicode="&#x201c;" horiz-adv-x="702" vert-adv-y="2458" 
d="M213 1009l-83 25l152 410l54 -20zM449 1009l-82 25l151 410l55 -20z" />
    <glyph glyph-name="quotedblright" unicode="&#x201d;" horiz-adv-x="702" vert-adv-y="2458" 
d="M490 1444l83 -25l-152 -410l-54 20zM253 1444l83 -25l-152 -410l-54 20z" />
    <glyph glyph-name="quotedblbase" unicode="&#x201e;" horiz-adv-x="702" vert-adv-y="2458" 
d="M490 134l83 -25l-152 -410l-54 20zM253 134l83 -25l-152 -410l-54 20z" />
    <glyph glyph-name="dagger" unicode="&#x2020;" horiz-adv-x="1120" vert-adv-y="2458" 
d="M516 1494h89v-361h325v-82h-325v-1379h-89v1379h-325v82h325v361z" />
    <glyph glyph-name="daggerdbl" unicode="&#x2021;" horiz-adv-x="1120" vert-adv-y="2458" 
d="M516 1494h87v-361h327v-82h-327v-775h327v-82h-327v-522h-87v522h-326v82h326v775h-326v82h326v361z" />
    <glyph glyph-name="bullet" unicode="&#x2022;" horiz-adv-x="1365" vert-adv-y="2458" 
d="M686 978q116 0 200 -83t83.5 -201t-83.5 -201t-200 -83t-201 83t-84 202t84 201q85 82 201 82z" />
    <glyph glyph-name="ellipsis" unicode="&#x2026;" horiz-adv-x="1312" vert-adv-y="2458" 
d="M1093 136q31 0 53 -22t22 -53t-22 -53t-53 -22t-53 22t-22 53t22 53t53 22zM581 60q-1 30 21 53q22 22 54 22q32 1 52 -21q22 -22 22 -53t-22 -53t-52 -22t-52.5 22t-22.5 52zM218.5 -14q-30.5 0 -52.5 22t-22 53t22 53t53 21q31 1 53 -21t21.5 -53t-22.5 -53t-52.5 -22z
" />
    <glyph glyph-name="perthousand" unicode="&#x2030;" horiz-adv-x="1907" vert-adv-y="2458" 
d="M1564 449q-80 0 -136 -57q-56 -56 -57 -136q1 -80 57 -137t136 -57t138 56q56 56 56 138q0 81 -57 137t-137 56zM1289 264q-1 102 77 181t206 79t207 -99q60 -75 60 -177q1 -102 -77 -182q-78 -78 -206 -78t-208 99q-59 75 -59 177zM894 449q-80 0 -136 -57
q-56 -56 -57 -136q1 -80 57 -137t136 -57t138 56q56 56 56 138q0 81 -58 137q-56 56 -136 56zM620 264q0 102 78 180q78 80 205 80q128 0 207 -99q60 -75 60 -177t-78 -182q-78 -78 -206 -78t-207 99q-59 75 -59 177zM992 1395l60 -31l-811 -1394l-57 32zM342 1303
q-80 0 -136 -57q-56 -56 -56 -136t56 -137t136 -57t138 56q56 56 56 138q0 81 -57 137t-137 56zM68 1117q0 102 77 181t205 79t209 -99q59 -76 59 -178t-78 -180t-206 -79q-128 0 -207 99q-59 75 -59 177z" />
    <glyph glyph-name="guilsinglleft" unicode="&#x2039;" horiz-adv-x="494" vert-adv-y="2458" 
d="M166 423l218 -256l-52 -49l-264 305l264 306l52 -49z" />
    <glyph glyph-name="guilsinglright" unicode="&#x203a;" horiz-adv-x="494" vert-adv-y="2458" 
d="M328 423l-219 257l52 49l264 -306l-264 -305l-52 49z" />
    <glyph glyph-name="trademark" unicode="&#x2122;" horiz-adv-x="1477" vert-adv-y="2458" 
d="M545 587l92 841l333 -713l335 712l93 -840h-77l-63 568l-289 -613l-286 612l-61 -567h-77zM270 1293v-706h-76v706h-193v72h464v-72h-195z" />
    <glyph glyph-name="estimated" unicode="&#x212e;" horiz-adv-x="990" vert-adv-y="2458" 
d="M497 778q-107 0 -199 -79t-112 -214h619q-35 181 -136 237t-172 56zM506 54q123 0 211 80q39 35 85 112l70 -41q-128 -227 -371 -227q-197 0 -313 146q-97 120 -97 298q1 178 115 306q114 126 276 126t268 -90q144 -123 148 -357h-718q9 -219 164 -308q77 -45 162 -45z
" />
    <glyph glyph-name="increment" unicode="&#x2206;" horiz-adv-x="1365" vert-adv-y="2458" 
d="M196 83h972l-486 1174zM68 0l567 1365h94l568 -1365h-1229z" />
    <glyph glyph-name="summation" unicode="&#x2211;" horiz-adv-x="1365" vert-adv-y="2458" 
d="M1202 1536v-444h-83l-6 359h-950l520 -895l-520 -985h969l4 357h85v-440h-1156v95l514 973l-514 889v91h1137z" />
    <glyph glyph-name="periodcentered" unicode="&#x2219;" horiz-adv-x="422" vert-adv-y="2458" 
d="M212 498q31 0 53 -22t22 -53t-22 -53t-53 -22t-53 22t-22 54q0 30 22 52t53 22z" />
    <glyph glyph-name="radical" unicode="&#x221a;" horiz-adv-x="1365" vert-adv-y="2458" 
d="M1365 1695v-83h-421l-494 -1612h-97l-195 642h-158v83h230l95 -308q40 -125 74 -274h5q11 42 54 189l58 208l354 1155h495z" />
    <glyph glyph-name="lessequal" unicode="&#x2264;" vert-adv-y="2458" 
d="M955 264v-83h-887v83h887zM955 1186v-88l-790 -343l790 -343v-87l-887 389v81z" />
    <glyph glyph-name="greaterequal" unicode="&#x2265;" vert-adv-y="2458" 
d="M68 181v83h887v-83h-887zM68 325v87l790 344l-790 342v88l887 -391v-81z" />
    <glyph glyph-name="lozenge" unicode="&#x25ca;" horiz-adv-x="1365" vert-adv-y="2458" 
d="M683 1193l-371 -510l371 -510l371 510zM683 1419l531 -736l-531 -736l-532 736z" />
    <glyph glyph-name="amacron" horiz-adv-x="1054" vert-adv-y="2458" 
d="M831 437q-1 161 -103 251t-234 90t-225 -102t-93 -260q0 -160 97 -261t243 -101t241 125q74 96 74 258zM91 422q0 221 142 339q111 93 265 93q203 0 328 -163v145h82v-836h-82v150q-115 -172 -316 -172t-321 145q-98 119 -98 299zM269 1114h511v-78h-511v78z" />
    <glyph glyph-name="emacron" horiz-adv-x="990" vert-adv-y="2458" 
d="M497 778q-107 0 -199 -79t-112 -214h619q-35 181 -171 257q-66 36 -137 36zM506 54q123 0 211 80q39 35 85 112l70 -41q-128 -227 -371 -227q-197 0 -313 146q-97 120 -97 298q1 178 115 306q114 126 276 126t268 -90q144 -123 148 -357h-718q9 -219 164 -308
q77 -45 162 -45zM249 1114h511v-78h-511v78z" />
    <glyph glyph-name="edotaccent" horiz-adv-x="990" vert-adv-y="2458" 
d="M497 778q-107 0 -199 -79t-112 -214h619q-35 181 -171 257q-66 36 -137 36zM506 54q123 0 211 80q39 35 85 112l70 -41q-128 -227 -371 -227q-197 0 -313 146q-97 120 -97 298q1 178 115 306q114 126 276 126t268 -90q144 -123 148 -357h-718q9 -219 164 -308
q77 -45 162 -45zM504 1166q32 0 55 -23t23 -55t-23 -56q-23 -23 -55 -23t-56 23q-23 24 -23 56t23 55q24 23 56 23z" />
    <glyph glyph-name="otilde" horiz-adv-x="1058" vert-adv-y="2458" 
d="M881 428q-1 148 -107 248q-106 102 -259 102t-257 -127q-82 -101 -82 -245t103 -248t247 -104q79 0 152 34t124 96q79 96 79 244zM91 428q0 176 131 301q130 125 312 125t307 -128t125 -324q0 -194 -153 -321q-124 -103 -283 -103q-97 0 -186 42t-152 114
q-101 118 -101 294zM427 1161q45 0 127 -38t108 -38q49 0 85 79l52 -40q-39 -118 -143 -118q-38 0 -124 38t-115 38q-51 0 -78 -78l-54 39q52 118 142 118z" />
    <glyph glyph-name="sterling" horiz-adv-x="1120" vert-adv-y="2458" 
d="M810 515v-82h-230q5 -30 5 -59q0 -123 -103 -231q64 -21 150 -51t130 -29q111 0 193 142l75 -45q-111 -186 -258 -186q-68 0 -206 50t-194 50t-117 -41q-21 -14 -67 -54l-49 66q47 53 115 86t128 31q115 109 115 219q0 17 -5 52h-224v82h202q-60 119 -124 217t-92 159
t-28 142q0 163 127 266q99 81 231 81t223 -75q131 -109 131 -286h-88q-8 174 -101 226t-168 52q-121 0 -193 -85t-72 -170t56 -184q10 -21 88 -148t104 -195h246z" />
    <glyph glyph-name="glyph143" horiz-adv-x="512" vert-adv-y="2458" 
 />
    <glyph glyph-name="gcommaaccent" horiz-adv-x="1067" vert-adv-y="2458" 
d="M506 778q-72 0 -138 -36t-112 -97q-71 -95 -71 -237q1 -142 89 -247t238 -105t254 121q78 91 78 251t-102 255t-236 95zM921 836v-819q0 -158 -32 -240q-54 -138 -183 -207q-91 -48 -206 -48q-170 0 -281 94t-128 264h85q18 -176 164 -246q72 -35 162 -35q175 0 263 125
q74 106 74 293v126q-139 -163 -326 -163t-300 132t-113 314q0 180 122 304t298 124q137 0 238 -81q34 -27 81 -83v146h82zM563 956l-94 26l120 280l65 -22z" />
    <glyph glyph-name="Iogonek" horiz-adv-x="457" vert-adv-y="2458" 
d="M166 -198q0 -112 89 -112q38 0 89 33l-21 -85q-39 -23 -99 -23t-106 45t-46 128q0 126 112 212v1365h89v-1365q-107 -86 -107 -198z" />
    <glyph glyph-name="Imacron" horiz-adv-x="458" vert-adv-y="2458" 
d="M24 1632h410v-89h-410v89zM273 1365v-1365h-89v1365h89z" />
    <glyph glyph-name="imacron" horiz-adv-x="374" vert-adv-y="2458" 
d="M7 1114h360v-78h-360v78zM228 836v-836h-82v836h82z" />
    <glyph glyph-name="Kcommaaccent" horiz-adv-x="1104" vert-adv-y="2458" 
d="M273 0h-89v1365h89v-635l641 635h122l-669 -658l710 -707h-131l-639 649l-34 -33v-616zM542 -96l100 -28l-124 -296l-64 20z" />
    <glyph glyph-name="Lcommaaccent" horiz-adv-x="646" vert-adv-y="2458" 
d="M273 1365v-1283h345v-82h-434v1365h89zM368 -96l100 -28l-124 -296l-64 20z" />
    <glyph glyph-name="lcommaaccent" horiz-adv-x="374" vert-adv-y="2458" 
d="M228 1494v-1494h-82v1494h82zM145 -96l94 -26l-120 -280l-65 22z" />
    <glyph glyph-name="Ncommaaccent" horiz-adv-x="1603" vert-adv-y="2458" 
d="M184 0v1380l1145 -1200v1185h89v-1400l-1145 1200v-1165h-89zM761 -96l100 -28l-124 -296l-64 20z" />
    <glyph glyph-name="ncommaaccent" horiz-adv-x="901" vert-adv-y="2458" 
d="M228 706q96 148 239 148q177 0 247 -116q41 -69 41 -211v-527h-82v527q0 119 -30 170q-48 81 -177 81t-194 -114q-30 -52 -37 -106t-7 -123v-435h-82v836h82v-130zM415 -96l94 -26l-120 -280l-65 22z" />
    <glyph glyph-name="glyph172" horiz-adv-x="1120" vert-adv-y="1120" 
 />
    <glyph glyph-name="Otilde" horiz-adv-x="1634" vert-adv-y="2458" 
d="M807 1301q-123 0 -243 -56t-209 -156q-155 -173 -155 -408q0 -131 52 -249t147 -206q182 -166 418 -166q129 0 251 56t211 156q155 173 155 425t-200 437q-179 167 -427 167zM828 1384q140 0 276 -62t238 -174q183 -199 183 -467q-1 -148 -61 -283t-171 -235
q-207 -186 -476 -186q-147 0 -285 62t-241 174q-182 199 -182 486t233 499q204 186 486 186zM702 1671q54 0 136 -36t117 -36t51 22t31 56l59 -45q-42 -123 -145 -123q-43 0 -129 36t-120 36t-50 -22t-28 -55l-59 45q56 122 137 122z" />
    <glyph glyph-name="Omacron" horiz-adv-x="1634" vert-adv-y="2458" 
d="M807 1301q-123 0 -243 -56t-209 -156q-155 -173 -155 -408q0 -131 52 -249t147 -206q182 -166 418 -166q129 0 251 56t211 156q155 173 155 425t-200 437q-179 167 -427 167zM828 1384q140 0 276 -62t238 -174q183 -199 183 -467q-1 -148 -61 -283t-171 -235
q-207 -186 -476 -186q-147 0 -285 62t-241 174q-182 199 -182 486t233 499q204 186 486 186zM537 1632h560v-89h-560v89z" />
    <glyph glyph-name="omacron" horiz-adv-x="1058" vert-adv-y="2458" 
d="M881 428q-1 148 -107 248q-106 102 -259 102t-257 -127q-82 -101 -82 -245t103 -248t247 -104q79 0 152 34t124 96q79 96 79 244zM91 428q0 176 131 301q130 125 312 125t307 -128t125 -324q0 -194 -153 -321q-124 -103 -283 -103q-97 0 -186 42t-152 114
q-101 118 -101 294zM273 1114h511v-78h-511v78z" />
    <glyph glyph-name="Rcommaaccent" horiz-adv-x="956" vert-adv-y="2458" 
d="M273 726h131q140 0 225 70t85 209q0 173 -130 243q-66 36 -199 35h-112v-557zM273 645v-645h-89v1365h194q136 0 210 -27q112 -42 164 -132t52 -203q0 -223 -173 -314q-70 -37 -217 -44l447 -645h-108l-440 645h-40zM448 -96l100 -28l-124 -296l-64 20z" />
    <glyph glyph-name="rcommaaccent" horiz-adv-x="532" vert-adv-y="2458" 
d="M146 836h82v-109q65 127 185 127q40 0 89 -20l-44 -72q-28 16 -66 16t-80 -28t-60 -76q-20 -46 -22 -99t-2 -126v-449h-82v836zM152 -96l94 -26l-120 -280l-65 22z" />
    <glyph glyph-name="Umacron" horiz-adv-x="1297" vert-adv-y="2458" 
d="M273 1365v-854q0 -149 15 -209q28 -116 136 -179t234 -63q124 0 230 74t126 197q9 54 9 180v854h89v-878q0 -161 -22 -227q-46 -140 -190 -219q-116 -64 -266 -64q-150 1 -278 89t-160 229q-12 57 -12 192v878h89zM368 1632h560v-89h-560v89z" />
    <glyph glyph-name="umacron" horiz-adv-x="893" vert-adv-y="2458" 
d="M228 836v-498q0 -132 26 -182t80 -76t114 -26t114 28q52 28 78 76q26 49 25 180v498h82v-527q0 -108 -20 -160q-35 -87 -115 -129t-165 -42q-154 0 -241 103q-44 53 -52 109t-8 119v527h82zM191 1114h511v-78h-511v78z" />
    <glyph glyph-name="Uogonek" horiz-adv-x="1297" vert-adv-y="2458" 
d="M834 -356q-68 0 -118 43q-48 43 -48 122q0 110 113 185q-72 -17 -132 -17q-165 1 -293 89t-160 229q-12 57 -12 192v878h89v-854q0 -149 15 -209q28 -116 136 -179t234 -63q124 0 230 74t126 197q9 54 9 180v854h89v-878q-1 -159 -16 -209q-36 -124 -186 -239t-149 -218
q0 -103 106 -103q54 0 121 38l-21 -85q-65 -27 -133 -27z" />
    <glyph glyph-name="uogonek" horiz-adv-x="893" vert-adv-y="2458" 
d="M589 -336q-65 0 -111 41t-45 115q0 74 51 127q13 15 52 42q-43 -11 -85 -11q-159 0 -245 103q-44 53 -52 109t-8 119v527h82v-498q0 -132 26 -182t80 -76t114 -26t113 27.5t79 76.5t25 180v498h82v-527q1 -105 -15 -149t-45 -80q-29 -34 -81 -89q-82 -85 -82 -160
q0 -49 27 -71t67 -23q40 0 108 36l-19 -81q-53 -28 -118 -28z" />
    <glyph glyph-name="kcommaaccent" horiz-adv-x="812" vert-adv-y="2458" 
d="M228 1494v-1012l341 354h109l-352 -362l469 -474h-113l-411 414l-43 -43v-371h-82v1494h82zM408 -96l94 -26l-120 -280l-65 22z" />
    <glyph glyph-name="Gcommaaccent" horiz-adv-x="1580" vert-adv-y="2458" 
d="M895 655h575q0 -133 -16 -211q-49 -238 -297 -378q-159 -90 -325 -89q-166 -1 -306 63t-242 178q-175 196 -175 459q1 153 65 293t181 241q199 173 453 173t440 -147q74 -59 164 -173l-70 -56q-75 100 -143 158t-171 97q-103 38 -221 38t-237 -54t-207 -152
q-164 -182 -164 -431q-1 -248 185 -426t429 -178q203 0 365 121t189 302q5 33 8 90h-480v82zM756 -96l100 -28l-124 -296l-64 20z" />
    <glyph glyph-name="glyph340" vert-adv-y="2458" 
d="M701 1379l100 -28l-124 -310l-64 19z" />
    <glyph glyph-name="glyph341" vert-adv-y="2458" 
d="M512 1694q-36 0 -60 -24t-25 -60q1 -34 25 -59t60 -25t60 24q25 24 25 60t-24.5 60t-60.5 24zM512 1775q68 0 116 -48t48 -116t-48 -116t-116 -48q-68 1 -116 49t-48 116t48 115q48 48 116 48z" />
    <glyph glyph-name="glyph342" vert-adv-y="2458" 
d="M767 1678l-255 -215l-255 215l74 57l181 -153l182 153z" />
    <glyph glyph-name="glyph343" vert-adv-y="2458" 
d="M649 -147l-210 -259l-73 37l180 273z" />
    <glyph glyph-name="glyph344" vert-adv-y="2458" 
d="M512 1559q128 0 168 152h86q-10 -88 -53 -143q-75 -99 -201 -99t-201 99q-43 55 -53 143h86q40 -152 168 -152z" />
    <glyph glyph-name="glyph345" vert-adv-y="2458" 
d="M257 1520l255 215l255 -215l-73 -57l-182 153l-182 -153z" />
    <glyph glyph-name="glyph346" vert-adv-y="2458" 
d="M775 1671l-271 -210l-72 53l249 222z" />
    <glyph glyph-name="glyph347" vert-adv-y="2458" 
d="M702 1668q32 0 55.5 -23t23.5 -55t-23.5 -55.5t-55.5 -23.5t-55 23.5t-23 55.5t23 55t55 23zM243 1590.5q0 33.5 23 55.5q24 22 56 22t55 -23t23 -55t-23 -55.5t-55 -23.5t-55.5 23t-23.5 56.5z" />
    <glyph glyph-name="glyph348" vert-adv-y="2458" 
d="M382 1671q54 0 137 -36q82 -36 117.5 -36t51.5 22t30 56l59 -45q-42 -123 -145 -123q-42 0 -128 36t-120 36t-50 -22t-29 -55l-59 45q55 122 136 122z" />
    <glyph glyph-name="glyph349" vert-adv-y="2458" 
d="M257 1114h511v-78h-511v78z" />
    <glyph glyph-name="glyph350" vert-adv-y="2458" 
d="M232 1632h560v-89h-560v89z" />
    <glyph glyph-name="glyph351" vert-adv-y="2458" 
d="M482 -96l100 -28l-124 -296l-64 20z" />
    <glyph glyph-name="glyph352" vert-adv-y="2458" 
d="M486 -96l94 -26l-120 -280l-65 22z" />
    <glyph glyph-name="glyph353" vert-adv-y="2458" 
d="M263 1008l249 233l249 -233l-66 -52l-183 178l-182 -178z" />
    <glyph glyph-name="glyph354" vert-adv-y="2458" 
d="M613 1671l-272 -210l-66 53l249 222zM900 1671l-272 -210l-66 53l249 222z" />
    <glyph glyph-name="glyph355" vert-adv-y="2458" 
d="M684 1501l94 -27l-120 -293l-65 21z" />
    <glyph glyph-name="glyph356" horiz-adv-x="374" vert-adv-y="2458" 
d="M228 836v-836h-82v836h82z" />
    <glyph glyph-name="glyph357" vert-adv-y="2458" 
d="M397 1161q45 0 127 -38t108 -38q49 0 85 79l52 -40q-39 -118 -143 -118q-38 0 -124 38t-115 38q-51 0 -78 -78l-54 39q52 118 142 118z" />
    <glyph glyph-name="glyph358" vert-adv-y="2458" 
d="M530 956l-94 26l120 280l65 -22z" />
    <glyph glyph-name="glyph359" vert-adv-y="2458" 
d="M512 1677q34 0 58 -24t24 -59t-24 -59t-58 -24q-34 1 -59 25q-24 24 -24 58t24 59q25 24 59 24z" />
    <glyph glyph-name="glyph360" vert-adv-y="2458" 
d="M512 1196q-36 0 -60 -24t-25 -60q1 -34 25 -59t60 -25t60 24q25 24 25 60t-24.5 60t-60.5 24zM512 956q-65 0 -111 46t-46 112q0 64 46 110t111 46t111 -46t46 -111t-46 -111t-111 -46z" />
    <glyph glyph-name="glyph361" horiz-adv-x="512" vert-adv-y="2458" 
 />
    </font>
</defs>
</svg>
